<?xml version="1.0" encoding="UTF-8" standalone="no"?>
<svg
   xmlns:dc="http://purl.org/dc/elements/1.1/"
   xmlns:cc="http://creativecommons.org/ns#"
   xmlns:rdf="http://www.w3.org/1999/02/22-rdf-syntax-ns#"
   xmlns:svg="http://www.w3.org/2000/svg"
   xmlns="http://www.w3.org/2000/svg"
   xmlns:sodipodi="http://sodipodi.sourceforge.net/DTD/sodipodi-0.dtd"
   xmlns:inkscape="http://www.inkscape.org/namespaces/inkscape"
   version="1.1"
   viewBox="0 0 201.96063 260.01575"
   stroke-miterlimit="10"
   id="svg71"
   sodipodi:docname="version.svg"
   width="201.96063"
   height="260.01575"
   style="fill:none;stroke:none;stroke-linecap:square;stroke-miterlimit:10"
   inkscape:version="0.92.4 (unknown)">
  <metadata
     id="metadata77">
    <rdf:RDF>
      <cc:Work
         rdf:about="">
        <dc:format>image/svg+xml</dc:format>
        <dc:type
           rdf:resource="http://purl.org/dc/dcmitype/StillImage" />
        <dc:title></dc:title>
      </cc:Work>
    </rdf:RDF>
  </metadata>
  <defs
     id="defs75" />
  <sodipodi:namedview
     pagecolor="#ffffff"
     bordercolor="#666666"
     borderopacity="1"
     objecttolerance="10"
     gridtolerance="10"
     guidetolerance="10"
     inkscape:pageopacity="0"
     inkscape:pageshadow="2"
     inkscape:window-width="1081"
     inkscape:window-height="951"
     id="namedview73"
     showgrid="false"
     fit-margin-top="5"
     fit-margin-left="5"
     fit-margin-right="5"
     fit-margin-bottom="5"
     inkscape:zoom="1.7481481"
     inkscape:cx="105.27289"
     inkscape:cy="96.680943"
     inkscape:window-x="0"
     inkscape:window-y="27"
     inkscape:window-maximized="0"
     inkscape:current-layer="svg71" />
  <clipPath
     id="p.0">
    <path
       d="M 0,0 H 720 V 540 H 0 Z"
       id="path2"
       inkscape:connector-curvature="0"
       style="clip-rule:nonzero" />
  </clipPath>
  <path
     style="fill:#000000;fill-opacity:0;fill-rule:evenodd"
     inkscape:connector-curvature="0"
     id="path5"
     d="m -227.52362,-21.150919 h 720 V 518.84908 h -720 z" />
  <path
     style="fill:#ffffff;fill-rule:evenodd"
     inkscape:connector-curvature="0"
     id="path7"
     d="M 10.47638,5.5 H 196.46063 V 164.52362 H 10.47638 Z" />
  <path
     style="fill-rule:evenodd;stroke:#000000;stroke-width:1;stroke-linecap:butt;stroke-linejoin:round"
     inkscape:connector-curvature="0"
     id="path9"
     d="M 10.47638,5.5 H 196.46063 V 164.52362 H 10.47638 Z" />
  <path
     style="fill:#000000;fill-rule:nonzero"
     inkscape:connector-curvature="0"
     id="path11"
     d="m 20.07013,24.237497 1.20312,-0.109375 q 0.0781,0.71875 0.39063,1.1875 0.3125,0.453125 0.95312,0.734375 0.65625,0.28125 1.46875,0.28125 0.71875,0 1.26563,-0.21875 0.5625,-0.21875 0.82812,-0.578125 0.26563,-0.375 0.26563,-0.828125 0,-0.453125 -0.26563,-0.78125 -0.25,-0.328125 -0.84375,-0.5625 -0.39062,-0.15625 -1.70312,-0.46875 -1.3125,-0.3125 -1.84375,-0.59375 -0.67188,-0.359375 -1.01563,-0.890625 -0.32812,-0.53125 -0.32812,-1.1875 0,-0.71875 0.40625,-1.34375 0.40625,-0.625 1.1875,-0.953125 0.79687,-0.328125 1.76562,-0.328125 1.04688,0 1.85938,0.34375 0.8125,0.34375 1.25,1.015625 0.4375,0.65625 0.46875,1.484375 l -1.20313,0.09375 q -0.10937,-0.90625 -0.67187,-1.359375 -0.5625,-0.46875 -1.65625,-0.46875 -1.14063,0 -1.67188,0.421875 -0.51562,0.421875 -0.51562,1.015625 0,0.515625 0.35937,0.84375 0.375,0.328125 1.90625,0.6875 1.54688,0.34375 2.10938,0.59375 0.84375,0.390625 1.23437,0.984375 0.39063,0.578125 0.39063,1.359375 0,0.75 -0.4375,1.4375 -0.42188,0.671875 -1.25,1.046875 -0.8125,0.359375 -1.82813,0.359375 -1.29687,0 -2.17187,-0.375 -0.875,-0.375 -1.375,-1.125 -0.5,-0.765625 -0.53125,-1.71875 z m 9.17102,5.71875 v -9.5625 h 1.07813 v 0.890625 q 0.375,-0.53125 0.84375,-0.78125 0.48437,-0.265625 1.15625,-0.265625 0.875,0 1.54687,0.453125 0.6875,0.453125 1.03125,1.28125 0.34375,0.828125 0.34375,1.828125 0,1.046875 -0.375,1.90625 -0.375,0.84375 -1.10937,1.296875 -0.71875,0.453125 -1.53125,0.453125 -0.57813,0 -1.04688,-0.25 -0.46875,-0.25 -0.76562,-0.625 v 3.375 z m 1.0625,-6.078125 q 0,1.34375 0.53125,1.984375 0.54688,0.625 1.3125,0.625 0.78125,0 1.34375,-0.65625 0.5625,-0.65625 0.5625,-2.046875 0,-1.3125 -0.54687,-1.96875 -0.54688,-0.671875 -1.29688,-0.671875 -0.75,0 -1.32812,0.703125 -0.57813,0.703125 -0.57813,2.03125 z m 11.08435,1.203125 1.20313,0.140625 q -0.28125,1.0625 -1.0625,1.65625 -0.76563,0.578125 -1.96875,0.578125 -1.51563,0 -2.40625,-0.9375 -0.89063,-0.9375 -0.89063,-2.609375 0,-1.75 0.89063,-2.703125 0.90625,-0.96875 2.34375,-0.96875 1.39062,0 2.26562,0.9375 0.875,0.9375 0.875,2.65625 0,0.109375 0,0.3125 h -5.15625 q 0.0625,1.140625 0.64063,1.75 0.57812,0.59375 1.4375,0.59375 0.65625,0 1.10937,-0.328125 0.45313,-0.34375 0.71875,-1.078125 z m -3.84375,-1.90625 h 3.85938 q -0.0781,-0.859375 -0.4375,-1.296875 -0.5625,-0.6875 -1.45313,-0.6875 -0.8125,0 -1.35937,0.546875 -0.54688,0.53125 -0.60938,1.4375 z m 11.03748,1.59375 1.15625,0.15625 q -0.1875,1.1875 -0.96875,1.859375 -0.78125,0.671875 -1.92188,0.671875 -1.40625,0 -2.28125,-0.921875 -0.85937,-0.9375 -0.85937,-2.65625 0,-1.125 0.375,-1.96875 0.375,-0.84375 1.125,-1.25 0.76562,-0.421875 1.65625,-0.421875 1.125,0 1.84375,0.578125 0.71875,0.5625 0.92187,1.609375 l -1.14062,0.171875 q -0.17188,-0.703125 -0.59375,-1.046875 -0.40625,-0.359375 -0.98438,-0.359375 -0.89062,0 -1.45312,0.640625 -0.54688,0.640625 -0.54688,2 0,1.40625 0.53125,2.03125 0.54688,0.625 1.40625,0.625 0.6875,0 1.14063,-0.421875 0.46875,-0.421875 0.59375,-1.296875 z m 2.16406,-5.65625 v -1.359375 h 1.17188 v 1.359375 z m 0,8.1875 v -6.90625 h 1.17188 v 6.90625 z m 3.22668,0 v -6 h -1.03125 v -0.90625 h 1.03125 v -0.734375 q 0,-0.703125 0.125,-1.046875 0.17188,-0.453125 0.59375,-0.734375 0.42188,-0.28125 1.20313,-0.28125 0.48437,0 1.09375,0.109375 l -0.1875,1.03125 q -0.35938,-0.0625 -0.6875,-0.0625 -0.53125,0 -0.75,0.234375 -0.21875,0.21875 -0.21875,0.84375 v 0.640625 h 1.34375 v 0.90625 h -1.34375 v 6 z m 3.43738,-8.1875 v -1.359375 h 1.17188 v 1.359375 z m 0,8.1875 v -6.90625 h 1.17188 v 6.90625 z m 7.46109,-2.53125 1.15625,0.15625 q -0.1875,1.1875 -0.96875,1.859375 -0.78125,0.671875 -1.92187,0.671875 -1.40625,0 -2.28125,-0.921875 -0.85938,-0.9375 -0.85938,-2.65625 0,-1.125 0.375,-1.96875 0.375,-0.84375 1.125,-1.25 0.76563,-0.421875 1.65625,-0.421875 1.125,0 1.84375,0.578125 0.71875,0.5625 0.92188,1.609375 l -1.14063,0.171875 q -0.17187,-0.703125 -0.59375,-1.046875 -0.40625,-0.359375 -0.98437,-0.359375 -0.89063,0 -1.45313,0.640625 -0.54687,0.640625 -0.54687,2 0,1.40625 0.53125,2.03125 0.54687,0.625 1.40625,0.625 0.6875,0 1.14062,-0.421875 0.46875,-0.421875 0.59375,-1.296875 z m 6.66407,1.671875 q -0.65625,0.5625 -1.26563,0.796875 -0.59375,0.21875 -1.28125,0.21875 -1.14062,0 -1.75,-0.546875 -0.60937,-0.5625 -0.60937,-1.4375 0,-0.5 0.21875,-0.921875 0.23437,-0.421875 0.60937,-0.671875 0.375,-0.25 0.84375,-0.390625 0.34375,-0.07813 1.04688,-0.171875 1.42187,-0.171875 2.09375,-0.40625 0,-0.234375 0,-0.296875 0,-0.71875 -0.32813,-1.015625 -0.45312,-0.390625 -1.34375,-0.390625 -0.8125,0 -1.21875,0.296875 -0.39062,0.28125 -0.57812,1.015625 l -1.14063,-0.15625 q 0.15625,-0.734375 0.51563,-1.1875 0.35937,-0.453125 1.03125,-0.6875 0.67187,-0.25 1.5625,-0.25 0.89062,0 1.4375,0.203125 0.5625,0.203125 0.8125,0.53125 0.26562,0.3125 0.375,0.796875 0.0469,0.296875 0.0469,1.078125 v 1.5625 q 0,1.625 0.0781,2.0625 0.0781,0.4375 0.29687,0.828125 h -1.21875 q -0.1875,-0.359375 -0.23437,-0.859375 z m -0.0937,-2.609375 q -0.64063,0.265625 -1.92188,0.4375 -0.71875,0.109375 -1.01562,0.25 -0.29688,0.125 -0.46875,0.375 -0.15625,0.25 -0.15625,0.546875 0,0.46875 0.34375,0.78125 0.35937,0.3125 1.04687,0.3125 0.67188,0 1.20313,-0.296875 0.53125,-0.296875 0.78125,-0.8125 0.1875,-0.390625 0.1875,-1.171875 z m 5.5531,2.421875 0.17187,1.03125 q -0.5,0.109375 -0.89062,0.109375 -0.64063,0 -1,-0.203125 -0.34375,-0.203125 -0.48438,-0.53125 -0.14062,-0.328125 -0.14062,-1.390625 v -3.96875 h -0.85938 v -0.90625 h 0.85938 v -1.71875 l 1.17187,-0.703125 v 2.421875 h 1.17188 v 0.90625 h -1.17188 v 4.046875 q 0,0.5 0.0469,0.640625 0.0625,0.140625 0.20312,0.234375 0.14063,0.07813 0.40625,0.07813 0.20313,0 0.51563,-0.04687 z m 1.15609,-7.140625 v -1.359375 h 1.17188 v 1.359375 z m 0,8.1875 v -6.90625 h 1.17188 v 6.90625 z m 2.508,-3.453125 q 0,-1.921875 1.07812,-2.84375 0.89063,-0.765625 2.17188,-0.765625 1.42187,0 2.32812,0.9375 0.90625,0.921875 0.90625,2.578125 0,1.328125 -0.40625,2.09375 -0.39062,0.765625 -1.15625,1.1875 -0.76562,0.421875 -1.67187,0.421875 -1.45313,0 -2.35938,-0.921875 -0.89062,-0.9375 -0.89062,-2.6875 z m 1.20312,0 q 0,1.328125 0.57813,1.984375 0.59375,0.65625 1.46875,0.65625 0.875,0 1.45312,-0.65625 0.57813,-0.671875 0.57813,-2.03125 0,-1.28125 -0.59375,-1.9375 -0.57813,-0.65625 -1.4375,-0.65625 -0.875,0 -1.46875,0.65625 -0.57813,0.65625 -0.57813,1.984375 z m 6.64685,3.453125 v -6.90625 h 1.0625 v 0.984375 q 0.75,-1.140625 2.1875,-1.140625 0.625,0 1.15625,0.21875 0.53125,0.21875 0.78125,0.59375 0.26563,0.359375 0.375,0.859375 0.0625,0.328125 0.0625,1.140625 v 4.25 H 92.9616 v -4.203125 q 0,-0.71875 -0.14063,-1.0625 -0.14062,-0.359375 -0.48437,-0.5625 -0.34375,-0.21875 -0.8125,-0.21875 -0.75,0 -1.29688,0.46875 -0.54687,0.46875 -0.54687,1.796875 v 3.78125 z m 13.99045,0 -3.6875,-9.546875 h 1.35938 l 2.48437,6.9375 q 0.29688,0.828125 0.5,1.5625 0.21875,-0.78125 0.51563,-1.5625 l 2.57812,-6.9375 h 1.28125 l -3.73437,9.546875 z m 10.01346,-2.21875 1.20313,0.140625 q -0.28125,1.0625 -1.0625,1.65625 -0.76563,0.578125 -1.96875,0.578125 -1.51563,0 -2.40625,-0.9375 -0.89063,-0.9375 -0.89063,-2.609375 0,-1.75 0.89063,-2.703125 0.90625,-0.96875 2.34375,-0.96875 1.39062,0 2.26562,0.9375 0.875,0.9375 0.875,2.65625 0,0.109375 0,0.3125 h -5.15625 q 0.0625,1.140625 0.64063,1.75 0.57812,0.59375 1.4375,0.59375 0.65625,0 1.10937,-0.328125 0.45313,-0.34375 0.71875,-1.078125 z m -3.84375,-1.90625 h 3.85938 q -0.0781,-0.859375 -0.4375,-1.296875 -0.5625,-0.6875 -1.45313,-0.6875 -0.8125,0 -1.35937,0.546875 -0.54688,0.53125 -0.60938,1.4375 z m 6.50623,4.125 v -6.90625 h 1.0625 v 1.046875 q 0.40625,-0.734375 0.73437,-0.96875 0.34375,-0.234375 0.76563,-0.234375 0.59375,0 1.20312,0.375 l -0.40625,1.078125 q -0.4375,-0.25 -0.85937,-0.25 -0.39063,0 -0.70313,0.234375 -0.29687,0.234375 -0.42187,0.640625 -0.20313,0.625 -0.20313,1.359375 v 3.625 z m 3.98523,-2.0625 1.15625,-0.1875 q 0.10937,0.703125 0.54687,1.078125 0.45313,0.359375 1.25,0.359375 0.8125,0 1.20313,-0.328125 0.39062,-0.328125 0.39062,-0.765625 0,-0.390625 -0.35937,-0.625 -0.23438,-0.15625 -1.1875,-0.390625 -1.29688,-0.328125 -1.79688,-0.5625 -0.48437,-0.25 -0.75,-0.65625 -0.25,-0.421875 -0.25,-0.9375 0,-0.453125 0.20313,-0.84375 0.21875,-0.40625 0.57812,-0.671875 0.28125,-0.1875 0.75,-0.328125 0.46875,-0.140625 1.01563,-0.140625 0.8125,0 1.42187,0.234375 0.60938,0.234375 0.90625,0.640625 0.29688,0.390625 0.40625,1.0625 l -1.14062,0.15625 q -0.0781,-0.53125 -0.45313,-0.828125 -0.375,-0.3125 -1.0625,-0.3125 -0.8125,0 -1.15625,0.265625 -0.34375,0.265625 -0.34375,0.625 0,0.234375 0.14063,0.421875 0.15625,0.1875 0.45312,0.3125 0.17188,0.0625 1.03125,0.296875 1.25,0.328125 1.73438,0.546875 0.5,0.203125 0.78125,0.609375 0.28125,0.40625 0.28125,1 0,0.59375 -0.34375,1.109375 -0.34375,0.515625 -1,0.796875 -0.64063,0.28125 -1.45313,0.28125 -1.34375,0 -2.04687,-0.5625 -0.70313,-0.5625 -0.90625,-1.65625 z m 7.14843,-6.125 v -1.359375 h 1.17188 v 1.359375 z m 0,8.1875 v -6.90625 h 1.17188 v 6.90625 z m 2.508,-3.453125 q 0,-1.921875 1.07812,-2.84375 0.89063,-0.765625 2.17188,-0.765625 1.42187,0 2.32812,0.9375 0.90625,0.921875 0.90625,2.578125 0,1.328125 -0.40625,2.09375 -0.39062,0.765625 -1.15625,1.1875 -0.76562,0.421875 -1.67187,0.421875 -1.45313,0 -2.35938,-0.921875 -0.89062,-0.9375 -0.89062,-2.6875 z m 1.20312,0 q 0,1.328125 0.57813,1.984375 0.59375,0.65625 1.46875,0.65625 0.875,0 1.45312,-0.65625 0.57813,-0.671875 0.57813,-2.03125 0,-1.28125 -0.59375,-1.9375 -0.57813,-0.65625 -1.4375,-0.65625 -0.875,0 -1.46875,0.65625 -0.57813,0.65625 -0.57813,1.984375 z m 6.64685,3.453125 v -6.90625 h 1.0625 v 0.984375 q 0.75,-1.140625 2.1875,-1.140625 0.625,0 1.15625,0.21875 0.53125,0.21875 0.78125,0.59375 0.26563,0.359375 0.375,0.859375 0.0625,0.328125 0.0625,1.140625 v 4.25 h -1.17187 v -4.203125 q 0,-0.71875 -0.14063,-1.0625 -0.14062,-0.359375 -0.48437,-0.5625 -0.34375,-0.21875 -0.8125,-0.21875 -0.75,0 -1.29688,0.46875 -0.54687,0.46875 -0.54687,1.796875 v 3.78125 z" />
  <path
     style="fill:#ffffff;fill-rule:evenodd"
     inkscape:connector-curvature="0"
     id="path13"
     d="m 19.47638,40.515749 h 169.98425 v 33.00787 H 19.47638 Z" />
  <path
     style="fill-rule:evenodd;stroke:#000000;stroke-width:1;stroke-linecap:butt;stroke-linejoin:round"
     inkscape:connector-curvature="0"
     id="path15"
     d="m 19.47638,40.515749 h 169.98425 v 33.00787 H 19.47638 Z" />
  <path
     style="fill:#000000;fill-rule:nonzero"
     inkscape:connector-curvature="0"
     id="path17"
     d="m 29.07013,52.257185 1.20312,-0.109375 q 0.0781,0.71875 0.39063,1.1875 0.3125,0.453125 0.95312,0.734375 0.65625,0.28125 1.46875,0.28125 0.71875,0 1.26563,-0.21875 0.5625,-0.21875 0.82812,-0.578125 0.26563,-0.375 0.26563,-0.828125 0,-0.453125 -0.26563,-0.78125 -0.25,-0.328125 -0.84375,-0.5625 -0.39062,-0.15625 -1.70312,-0.46875 -1.3125,-0.3125 -1.84375,-0.59375 -0.67188,-0.359375 -1.01563,-0.890625 -0.32812,-0.53125 -0.32812,-1.1875 0,-0.71875 0.40625,-1.34375 0.40625,-0.625 1.1875,-0.953125 0.79687,-0.328125 1.76562,-0.328125 1.04688,0 1.85938,0.34375 0.8125,0.34375 1.25,1.015625 0.4375,0.65625 0.46875,1.484375 l -1.20313,0.09375 q -0.10937,-0.90625 -0.67187,-1.359375 -0.5625,-0.46875 -1.65625,-0.46875 -1.14063,0 -1.67188,0.421875 -0.51562,0.421875 -0.51562,1.015625 0,0.515625 0.35937,0.84375 0.375,0.328125 1.90625,0.6875 1.54688,0.34375 2.10938,0.59375 0.84375,0.390625 1.23437,0.984375 0.39063,0.578125 0.39063,1.359375 0,0.75 -0.4375,1.4375 -0.42188,0.671875 -1.25,1.046875 -0.8125,0.359375 -1.82813,0.359375 -1.29687,0 -2.17187,-0.375 -0.875,-0.375 -1.375,-1.125 -0.5,-0.765625 -0.53125,-1.71875 z m 9.17102,5.71875 v -9.5625 h 1.07813 v 0.890625 q 0.375,-0.53125 0.84375,-0.78125 0.48437,-0.265625 1.15625,-0.265625 0.875,0 1.54687,0.453125 0.6875,0.453125 1.03125,1.28125 0.34375,0.828125 0.34375,1.828125 0,1.046875 -0.375,1.90625 -0.375,0.84375 -1.10937,1.296875 -0.71875,0.453125 -1.53125,0.453125 -0.57813,0 -1.04688,-0.25 -0.46875,-0.25 -0.76562,-0.625 v 3.375 z m 1.0625,-6.078125 q 0,1.34375 0.53125,1.984375 0.54688,0.625 1.3125,0.625 0.78125,0 1.34375,-0.65625 0.5625,-0.65625 0.5625,-2.046875 0,-1.3125 -0.54687,-1.96875 -0.54688,-0.671875 -1.29688,-0.671875 -0.75,0 -1.32812,0.703125 -0.57813,0.703125 -0.57813,2.03125 z m 11.08435,1.203125 1.20313,0.140625 q -0.28125,1.0625 -1.0625,1.65625 -0.76563,0.578125 -1.96875,0.578125 -1.51563,0 -2.40625,-0.9375 -0.89063,-0.9375 -0.89063,-2.609375 0,-1.75 0.89063,-2.703125 0.90625,-0.96875 2.34375,-0.96875 1.39062,0 2.26562,0.9375 0.875,0.9375 0.875,2.65625 0,0.109375 0,0.3125 h -5.15625 q 0.0625,1.140625 0.64063,1.75 0.57812,0.59375 1.4375,0.59375 0.65625,0 1.10937,-0.328125 0.45313,-0.34375 0.71875,-1.078125 z m -3.84375,-1.90625 h 3.85938 q -0.0781,-0.859375 -0.4375,-1.296875 -0.5625,-0.6875 -1.45313,-0.6875 -0.8125,0 -1.35937,0.546875 -0.54688,0.53125 -0.60938,1.4375 z m 11.03748,1.59375 1.15625,0.15625 q -0.1875,1.1875 -0.96875,1.859375 -0.78125,0.671875 -1.92188,0.671875 -1.40625,0 -2.28125,-0.921875 -0.85937,-0.9375 -0.85937,-2.65625 0,-1.125 0.375,-1.96875 0.375,-0.84375 1.125,-1.25 0.76562,-0.421875 1.65625,-0.421875 1.125,0 1.84375,0.578125 0.71875,0.5625 0.92187,1.609375 L 57.48798,50.61656 Q 57.3161,49.913435 56.89423,49.569685 56.48798,49.21031 55.90985,49.21031 q -0.89062,0 -1.45312,0.640625 -0.54688,0.640625 -0.54688,2 0,1.40625 0.53125,2.03125 0.54688,0.625 1.40625,0.625 0.6875,0 1.14063,-0.421875 0.46875,-0.421875 0.59375,-1.296875 z m 2.16406,-5.65625 V 45.77281 h 1.17188 v 1.359375 z m 0,8.1875 v -6.90625 h 1.17188 v 6.90625 z m 3.22668,0 v -6 h -1.03125 v -0.90625 h 1.03125 V 47.67906 q 0,-0.703125 0.125,-1.046875 0.17188,-0.453125 0.59375,-0.734375 0.42188,-0.28125 1.20313,-0.28125 0.48437,0 1.09375,0.109375 l -0.1875,1.03125 q -0.35938,-0.0625 -0.6875,-0.0625 -0.53125,0 -0.75,0.234375 -0.21875,0.21875 -0.21875,0.84375 v 0.640625 h 1.34375 v 0.90625 h -1.34375 v 6 z m 3.43738,-8.1875 V 45.77281 h 1.17188 v 1.359375 z m 0,8.1875 v -6.90625 h 1.17188 v 6.90625 z m 7.46109,-2.53125 1.15625,0.15625 q -0.1875,1.1875 -0.96875,1.859375 -0.78125,0.671875 -1.92187,0.671875 -1.40625,0 -2.28125,-0.921875 -0.85938,-0.9375 -0.85938,-2.65625 0,-1.125 0.375,-1.96875 0.375,-0.84375 1.125,-1.25 0.76563,-0.421875 1.65625,-0.421875 1.125,0 1.84375,0.578125 0.71875,0.5625 0.92188,1.609375 l -1.14063,0.171875 q -0.17187,-0.703125 -0.59375,-1.046875 -0.40625,-0.359375 -0.98437,-0.359375 -0.89063,0 -1.45313,0.640625 -0.54687,0.640625 -0.54687,2 0,1.40625 0.53125,2.03125 0.54687,0.625 1.40625,0.625 0.6875,0 1.14062,-0.421875 0.46875,-0.421875 0.59375,-1.296875 z m 6.66407,1.671875 q -0.65625,0.5625 -1.26563,0.796875 -0.59375,0.21875 -1.28125,0.21875 -1.14062,0 -1.75,-0.546875 -0.60937,-0.5625 -0.60937,-1.4375 0,-0.5 0.21875,-0.921875 0.23437,-0.421875 0.60937,-0.671875 0.375,-0.25 0.84375,-0.390625 0.34375,-0.07813 1.04688,-0.171875 1.42187,-0.171875 2.09375,-0.40625 0,-0.234375 0,-0.296875 0,-0.71875 -0.32813,-1.015625 -0.45312,-0.390625 -1.34375,-0.390625 -0.8125,0 -1.21875,0.296875 -0.39062,0.28125 -0.57812,1.015625 l -1.14063,-0.15625 q 0.15625,-0.734375 0.51563,-1.1875 0.35937,-0.453125 1.03125,-0.6875 0.67187,-0.25 1.5625,-0.25 0.89062,0 1.4375,0.203125 0.5625,0.203125 0.8125,0.53125 0.26562,0.3125 0.375,0.796875 0.0469,0.296875 0.0469,1.078125 v 1.5625 q 0,1.625 0.0781,2.0625 0.0781,0.4375 0.29687,0.828125 H 80.76938 Q 80.58188,54.96031 80.53501,54.46031 Z m -0.0937,-2.609375 q -0.64063,0.265625 -1.92188,0.4375 -0.71875,0.109375 -1.01562,0.25 -0.29688,0.125 -0.46875,0.375 -0.15625,0.25 -0.15625,0.546875 0,0.46875 0.34375,0.78125 0.35937,0.3125 1.04687,0.3125 0.67188,0 1.20313,-0.296875 0.53125,-0.296875 0.78125,-0.8125 0.1875,-0.390625 0.1875,-1.171875 z m 5.5531,2.421875 0.17187,1.03125 q -0.5,0.109375 -0.89062,0.109375 -0.64063,0 -1,-0.203125 -0.34375,-0.203125 -0.48438,-0.53125 -0.14062,-0.328125 -0.14062,-1.390625 v -3.96875 h -0.85938 v -0.90625 h 0.85938 v -1.71875 l 1.17187,-0.703125 v 2.421875 h 1.17188 v 0.90625 h -1.17188 v 4.046875 q 0,0.5 0.0469,0.640625 0.0625,0.140625 0.20312,0.234375 0.14063,0.07813 0.40625,0.07813 0.20313,0 0.51563,-0.04687 z M 87.1505,47.132185 V 45.77281 h 1.17188 v 1.359375 z m 0,8.1875 v -6.90625 h 1.17188 v 6.90625 z m 2.508,-3.453125 q 0,-1.921875 1.07812,-2.84375 0.89063,-0.765625 2.17188,-0.765625 1.42187,0 2.32812,0.9375 0.90625,0.921875 0.90625,2.578125 0,1.328125 -0.40625,2.09375 -0.39062,0.765625 -1.15625,1.1875 -0.76562,0.421875 -1.67187,0.421875 -1.45313,0 -2.35938,-0.921875 -0.89062,-0.9375 -0.89062,-2.6875 z m 1.20312,0 q 0,1.328125 0.57813,1.984375 0.59375,0.65625 1.46875,0.65625 0.875,0 1.45312,-0.65625 0.57813,-0.671875 0.57813,-2.03125 0,-1.28125 -0.59375,-1.9375 -0.57813,-0.65625 -1.4375,-0.65625 -0.875,0 -1.46875,0.65625 -0.57813,0.65625 -0.57813,1.984375 z m 6.64685,3.453125 v -6.90625 h 1.0625 v 0.984375 q 0.75,-1.140625 2.1875,-1.140625 0.625,0 1.15625,0.21875 0.53125,0.21875 0.78125,0.59375 0.26563,0.359375 0.375,0.859375 0.0625,0.328125 0.0625,1.140625 v 4.25 H 101.9616 V 51.11656 q 0,-0.71875 -0.14063,-1.0625 -0.14062,-0.359375 -0.48437,-0.5625 -0.34375,-0.21875 -0.8125,-0.21875 -0.75,0 -1.29688,0.46875 -0.54687,0.46875 -0.54687,1.796875 v 3.78125 z m 11.2717,0 V 45.77281 h 3.28125 q 1.10938,0 1.70313,0.140625 0.8125,0.1875 1.39062,0.6875 0.76563,0.640625 1.14063,1.640625 0.375,0.984375 0.375,2.25 0,1.09375 -0.26563,1.9375 -0.25,0.828125 -0.65625,1.390625 -0.39062,0.546875 -0.85937,0.859375 -0.46875,0.3125 -1.14063,0.484375 -0.65625,0.15625 -1.53125,0.15625 z m 1.26563,-1.125 h 2.03125 q 0.9375,0 1.46875,-0.171875 0.54687,-0.1875 0.875,-0.5 0.4375,-0.453125 0.6875,-1.203125 0.25,-0.765625 0.25,-1.84375 0,-1.5 -0.5,-2.296875 -0.48438,-0.8125 -1.1875,-1.078125 -0.5,-0.203125 -1.625,-0.203125 h -2 z m 7.76577,-2.328125 q 0,-1.921875 1.07813,-2.84375 0.89062,-0.765625 2.17187,-0.765625 1.42188,0 2.32813,0.9375 0.90625,0.921875 0.90625,2.578125 0,1.328125 -0.40625,2.09375 -0.39063,0.765625 -1.15625,1.1875 -0.76563,0.421875 -1.67188,0.421875 -1.45312,0 -2.35937,-0.921875 -0.89063,-0.9375 -0.89063,-2.6875 z m 1.20313,0 q 0,1.328125 0.57812,1.984375 0.59375,0.65625 1.46875,0.65625 0.875,0 1.45313,-0.65625 0.57812,-0.671875 0.57812,-2.03125 0,-1.28125 -0.59375,-1.9375 -0.57812,-0.65625 -1.4375,-0.65625 -0.875,0 -1.46875,0.65625 -0.57812,0.65625 -0.57812,1.984375 z m 11.16248,0.921875 1.15625,0.15625 q -0.1875,1.1875 -0.96875,1.859375 -0.78125,0.671875 -1.92188,0.671875 -1.40625,0 -2.28125,-0.921875 -0.85937,-0.9375 -0.85937,-2.65625 0,-1.125 0.375,-1.96875 0.375,-0.84375 1.125,-1.25 0.76562,-0.421875 1.65625,-0.421875 1.125,0 1.84375,0.578125 0.71875,0.5625 0.92187,1.609375 l -1.14062,0.171875 q -0.17188,-0.703125 -0.59375,-1.046875 -0.40625,-0.359375 -0.98438,-0.359375 -0.89062,0 -1.45312,0.640625 -0.54688,0.640625 -0.54688,2 0,1.40625 0.53125,2.03125 0.54688,0.625 1.40625,0.625 0.6875,0 1.14063,-0.421875 0.46875,-0.421875 0.59375,-1.296875 z m 6.67968,2.53125 V 54.30406 q -0.8125,1.171875 -2.1875,1.171875 -0.60937,0 -1.14062,-0.234375 -0.53125,-0.234375 -0.79688,-0.578125 -0.25,-0.359375 -0.35937,-0.875 -0.0625,-0.34375 -0.0625,-1.09375 v -4.28125 h 1.17187 v 3.828125 q 0,0.921875 0.0625,1.234375 0.10938,0.46875 0.46875,0.734375 0.35938,0.25 0.89063,0.25 0.51562,0 0.98437,-0.265625 0.46875,-0.265625 0.65625,-0.734375 0.1875,-0.46875 0.1875,-1.34375 v -3.703125 h 1.17188 v 6.90625 z m 2.88123,0 v -6.90625 h 1.04687 v 0.96875 q 0.32813,-0.515625 0.85938,-0.8125 0.54687,-0.3125 1.23437,-0.3125 0.78125,0 1.26563,0.3125 0.48437,0.3125 0.6875,0.890625 0.82812,-1.203125 2.14062,-1.203125 1.03125,0 1.57813,0.578125 0.5625,0.5625 0.5625,1.734375 v 4.75 h -1.17188 V 50.96031 q 0,-0.703125 -0.125,-1 -0.10937,-0.3125 -0.40625,-0.5 -0.29687,-0.1875 -0.70312,-0.1875 -0.71875,0 -1.20313,0.484375 -0.48437,0.484375 -0.48437,1.546875 v 4.015625 h -1.17188 V 50.83531 q 0,-0.78125 -0.29687,-1.171875 -0.28125,-0.390625 -0.92188,-0.390625 -0.5,0 -0.92187,0.265625 -0.42188,0.25 -0.60938,0.75 -0.1875,0.5 -0.1875,1.453125 v 3.578125 z m 15.83679,-2.21875 1.20313,0.140625 q -0.28125,1.0625 -1.0625,1.65625 -0.76563,0.578125 -1.96875,0.578125 -1.51563,0 -2.40625,-0.9375 -0.89063,-0.9375 -0.89063,-2.609375 0,-1.75 0.89063,-2.703125 0.90625,-0.96875 2.34375,-0.96875 1.39062,0 2.26562,0.9375 0.875,0.9375 0.875,2.65625 0,0.109375 0,0.3125 h -5.15625 q 0.0625,1.140625 0.64063,1.75 0.57812,0.59375 1.4375,0.59375 0.65625,0 1.10937,-0.328125 0.45313,-0.34375 0.71875,-1.078125 z m -3.84375,-1.90625 h 3.85938 q -0.0781,-0.859375 -0.4375,-1.296875 -0.5625,-0.6875 -1.45313,-0.6875 -0.8125,0 -1.35937,0.546875 -0.54688,0.53125 -0.60938,1.4375 z m 6.52185,4.125 v -6.90625 h 1.0625 v 0.984375 q 0.75,-1.140625 2.1875,-1.140625 0.625,0 1.15625,0.21875 0.53125,0.21875 0.78125,0.59375 0.26563,0.359375 0.375,0.859375 0.0625,0.328125 0.0625,1.140625 v 4.25 h -1.17187 V 51.11656 q 0,-0.71875 -0.14063,-1.0625 -0.14062,-0.359375 -0.48437,-0.5625 -0.34375,-0.21875 -0.8125,-0.21875 -0.75,0 -1.29688,0.46875 -0.54687,0.46875 -0.54687,1.796875 v 3.78125 z m 9.97498,-1.046875 0.17187,1.03125 q -0.5,0.109375 -0.89062,0.109375 -0.64063,0 -1,-0.203125 -0.34375,-0.203125 -0.48438,-0.53125 -0.14062,-0.328125 -0.14062,-1.390625 v -3.96875 h -0.85938 v -0.90625 h 0.85938 v -1.71875 l 1.17187,-0.703125 v 2.421875 h 1.17188 v 0.90625 h -1.17188 v 4.046875 q 0,0.5 0.0469,0.640625 0.0625,0.140625 0.20312,0.234375 0.14063,0.07813 0.40625,0.07813 0.20313,0 0.51563,-0.04687 z" />
  <path
     style="fill:#000000;fill-rule:nonzero"
     inkscape:connector-curvature="0"
     id="path19"
     d="m 49.81085,71.009691 q -0.78125,-0.984375 -1.32813,-2.296875 -0.53125,-1.3125 -0.53125,-2.71875 0,-1.234375 0.40625,-2.375 0.46875,-1.3125 1.45313,-2.625 h 0.65625 q -0.625,1.09375 -0.82813,1.546875 -0.3125,0.71875 -0.5,1.5 -0.21875,0.984375 -0.21875,1.96875 0,2.5 1.54688,5 z m 1.37671,-3.90625 0.92187,-0.140625 q 0.0781,0.5625 0.4375,0.859375 0.35938,0.296875 1,0.296875 0.64063,0 0.95313,-0.265625 0.3125,-0.265625 0.3125,-0.625 0,-0.3125 -0.28125,-0.5 -0.1875,-0.125 -0.95313,-0.3125 -1.03125,-0.265625 -1.4375,-0.453125 -0.39062,-0.1875 -0.59375,-0.515625 -0.20312,-0.34375 -0.20312,-0.75 0,-0.359375 0.17187,-0.671875 0.17188,-0.328125 0.45313,-0.53125 0.21875,-0.15625 0.59375,-0.265625 0.39062,-0.125 0.8125,-0.125 0.65625,0 1.14062,0.1875 0.5,0.1875 0.73438,0.515625 0.23437,0.3125 0.3125,0.859375 l -0.90625,0.125 q -0.0625,-0.4375 -0.375,-0.671875 -0.29688,-0.234375 -0.82813,-0.234375 -0.65625,0 -0.9375,0.21875 -0.26562,0.203125 -0.26562,0.484375 0,0.1875 0.10937,0.328125 0.125,0.15625 0.35938,0.25 0.14062,0.0625 0.82812,0.25 1,0.265625 1.39063,0.4375 0.39062,0.15625 0.60937,0.484375 0.23438,0.3125 0.23438,0.796875 0,0.46875 -0.28125,0.890625 -0.26563,0.40625 -0.78125,0.640625 -0.51563,0.21875 -1.17188,0.21875 -1.07812,0 -1.64062,-0.4375 -0.5625,-0.453125 -0.71875,-1.34375 z m 5.35937,-1.109375 q 0,-1.53125 0.84375,-2.265625 0.71875,-0.625 1.73438,-0.625 1.14062,0 1.85937,0.75 0.73438,0.75 0.73438,2.0625 0,1.0625 -0.32813,1.6875 -0.3125,0.609375 -0.92187,0.953125 -0.60938,0.328125 -1.34375,0.328125 -1.15625,0 -1.875,-0.734375 -0.70313,-0.75 -0.70313,-2.15625 z m 0.95313,0 q 0,1.0625 0.46875,1.59375 0.46875,0.53125 1.15625,0.53125 0.70312,0 1.15625,-0.53125 0.46875,-0.53125 0.46875,-1.625 0,-1.015625 -0.46875,-1.546875 -0.45313,-0.53125 -1.15625,-0.53125 -0.6875,0 -1.15625,0.53125 -0.46875,0.515625 -0.46875,1.578125 z m 8.94214,2.765625 v -0.8125 q -0.65625,0.9375 -1.75,0.9375 -0.5,0 -0.92188,-0.1875 -0.42187,-0.1875 -0.625,-0.46875 -0.20312,-0.28125 -0.29687,-0.703125 -0.0469,-0.265625 -0.0469,-0.875 v -3.421875 h 0.9375 v 3.0625 q 0,0.734375 0.0469,1 0.0937,0.359375 0.375,0.578125 0.29687,0.203125 0.70312,0.203125 0.42188,0 0.79688,-0.203125 0.375,-0.21875 0.51562,-0.59375 0.15625,-0.375 0.15625,-1.078125 v -2.96875 h 0.9375 v 5.53125 z m 2.28589,0 v -5.53125 h 0.84375 v 0.84375 q 0.32812,-0.59375 0.59375,-0.78125 0.28125,-0.1875 0.60937,-0.1875 0.46875,0 0.95313,0.3125 l -0.3125,0.859375 q -0.34375,-0.203125 -0.6875,-0.203125 -0.3125,0 -0.5625,0.1875 -0.23438,0.1875 -0.34375,0.515625 -0.15625,0.5 -0.15625,1.09375 v 2.890625 z m 7.17358,-2.03125 0.92188,0.125 q -0.15625,0.953125 -0.78125,1.5 -0.625,0.53125 -1.53125,0.53125 -1.125,0 -1.8125,-0.734375 -0.6875,-0.75 -0.6875,-2.125 0,-0.90625 0.29687,-1.578125 0.29688,-0.671875 0.89063,-1 0.60937,-0.34375 1.32812,-0.34375 0.89063,0 1.46875,0.46875 0.57813,0.453125 0.73438,1.28125 l -0.90625,0.140625 q -0.14063,-0.546875 -0.46875,-0.828125 -0.32813,-0.28125 -0.79688,-0.28125 -0.70312,0 -1.15625,0.515625 -0.4375,0.5 -0.4375,1.59375 0,1.109375 0.42188,1.625 0.4375,0.5 1.125,0.5 0.54687,0 0.90625,-0.34375 0.375,-0.34375 0.48437,-1.046875 z m 5.5,0.25 0.96875,0.125 q -0.23437,0.84375 -0.85937,1.3125 -0.60938,0.46875 -1.57813,0.46875 -1.20312,0 -1.92187,-0.75 -0.70313,-0.75 -0.70313,-2.09375 0,-1.390625 0.71875,-2.15625 0.71875,-0.78125 1.85938,-0.78125 1.10937,0 1.8125,0.765625 0.70312,0.75 0.70312,2.125 0,0.07813 0,0.234375 h -4.125 q 0.0469,0.921875 0.51563,1.40625 0.46875,0.484375 1.15625,0.484375 0.51562,0 0.875,-0.265625 0.35937,-0.28125 0.57812,-0.875 z m -3.07812,-1.515625 h 3.09375 q -0.0625,-0.6875 -0.35938,-1.046875 -0.45312,-0.53125 -1.15625,-0.53125 -0.64062,0 -1.09375,0.4375 -0.4375,0.421875 -0.48437,1.140625 z m 11.79339,2.609375 q -0.53125,0.453125 -1.01562,0.640625 -0.46875,0.171875 -1.01563,0.171875 -0.92187,0 -1.40625,-0.4375 -0.48437,-0.453125 -0.48437,-1.140625 0,-0.40625 0.17187,-0.734375 0.1875,-0.34375 0.48438,-0.546875 0.3125,-0.203125 0.6875,-0.3125 0.26562,-0.0625 0.82812,-0.140625 1.125,-0.125 1.67188,-0.3125 0,-0.203125 0,-0.25 0,-0.578125 -0.26563,-0.8125 -0.35937,-0.3125 -1.0625,-0.3125 -0.65625,0 -0.98437,0.234375 -0.3125,0.234375 -0.45313,0.8125 l -0.92187,-0.125 q 0.125,-0.578125 0.40625,-0.9375 0.29687,-0.375 0.82812,-0.5625 0.54688,-0.203125 1.25,-0.203125 0.71875,0 1.15625,0.171875 0.4375,0.171875 0.64063,0.421875 0.21875,0.25 0.29687,0.640625 0.0469,0.234375 0.0469,0.859375 v 1.25 q 0,1.296875 0.0625,1.65625 0.0625,0.34375 0.23437,0.65625 h -0.96875 q -0.15625,-0.296875 -0.1875,-0.6875 z m -0.0781,-2.078125 q -0.51563,0.203125 -1.53125,0.34375 -0.57813,0.07813 -0.82813,0.1875 -0.23437,0.109375 -0.35937,0.3125 -0.125,0.1875 -0.125,0.4375 0,0.375 0.28125,0.625 0.28125,0.25 0.82812,0.25 0.53125,0 0.95313,-0.234375 0.42187,-0.234375 0.625,-0.65625 0.15625,-0.3125 0.15625,-0.9375 z m 2.39526,2.765625 v -5.53125 h 0.84375 v 0.796875 q 0.60938,-0.921875 1.75,-0.921875 0.5,0 0.92188,0.1875 0.42187,0.171875 0.625,0.46875 0.21875,0.296875 0.29687,0.6875 0.0469,0.265625 0.0469,0.921875 v 3.390625 H 95.981 v -3.359375 q 0,-0.578125 -0.10938,-0.859375 -0.10937,-0.28125 -0.39062,-0.453125 -0.26563,-0.171875 -0.64063,-0.171875 -0.59375,0 -1.03125,0.390625 -0.4375,0.375 -0.4375,1.4375 v 3.015625 z m 9.50464,0 v -0.703125 q -0.51563,0.828125 -1.54688,0.828125 -0.65625,0 -1.21875,-0.359375 -0.54687,-0.375 -0.85937,-1.015625 -0.29688,-0.65625 -0.29688,-1.5 0,-0.828125 0.28125,-1.5 0.28125,-0.6875 0.82813,-1.046875 0.54687,-0.359375 1.23437,-0.359375 0.5,0 0.89063,0.21875 0.39062,0.203125 0.625,0.546875 v -2.734375 h 0.9375 v 7.625 z m -2.95313,-2.75 q 0,1.046875 0.4375,1.578125 0.45313,0.53125 1.0625,0.53125 0.60938,0 1.03125,-0.5 0.4375,-0.515625 0.4375,-1.53125 0,-1.140625 -0.4375,-1.671875 -0.4375,-0.53125 -1.07812,-0.53125 -0.60938,0 -1.03125,0.515625 -0.42188,0.5 -0.42188,1.609375 z m 11.84028,2.75 v -0.703125 q -0.51563,0.828125 -1.54688,0.828125 -0.65625,0 -1.21875,-0.359375 -0.54687,-0.375 -0.85937,-1.015625 -0.29688,-0.65625 -0.29688,-1.5 0,-0.828125 0.28125,-1.5 0.28125,-0.6875 0.82813,-1.046875 0.54687,-0.359375 1.23437,-0.359375 0.5,0 0.89063,0.21875 0.39062,0.203125 0.625,0.546875 v -2.734375 h 0.9375 v 7.625 z m -2.95313,-2.75 q 0,1.046875 0.4375,1.578125 0.45313,0.53125 1.0625,0.53125 0.60938,0 1.03125,-0.5 0.4375,-0.515625 0.4375,-1.53125 0,-1.140625 -0.4375,-1.671875 -0.4375,-0.53125 -1.07812,-0.53125 -0.60938,0 -1.03125,0.515625 -0.42188,0.5 -0.42188,1.609375 z m 5.30148,-3.796875 v -1.078125 h 0.9375 v 1.078125 z m 0,6.546875 v -5.53125 h 0.9375 v 5.53125 z m 1.99247,-1.65625 0.92187,-0.140625 q 0.0781,0.5625 0.4375,0.859375 0.35938,0.296875 1,0.296875 0.64063,0 0.95313,-0.265625 0.3125,-0.265625 0.3125,-0.625 0,-0.3125 -0.28125,-0.5 -0.1875,-0.125 -0.95313,-0.3125 -1.03125,-0.265625 -1.4375,-0.453125 -0.39062,-0.1875 -0.59375,-0.515625 -0.20312,-0.34375 -0.20312,-0.75 0,-0.359375 0.17187,-0.671875 0.17188,-0.328125 0.45313,-0.53125 0.21875,-0.15625 0.59375,-0.265625 0.39062,-0.125 0.8125,-0.125 0.65625,0 1.14062,0.1875 0.5,0.1875 0.73438,0.515625 0.23437,0.3125 0.3125,0.859375 l -0.90625,0.125 q -0.0625,-0.4375 -0.375,-0.671875 -0.29688,-0.234375 -0.82813,-0.234375 -0.65625,0 -0.9375,0.21875 -0.26562,0.203125 -0.26562,0.484375 0,0.1875 0.10937,0.328125 0.125,0.15625 0.35938,0.25 0.14062,0.0625 0.82812,0.25 1,0.265625 1.39063,0.4375 0.39062,0.15625 0.60937,0.484375 0.23438,0.3125 0.23438,0.796875 0,0.46875 -0.28125,0.890625 -0.26563,0.40625 -0.78125,0.640625 -0.51563,0.21875 -1.17188,0.21875 -1.07812,0 -1.64062,-0.4375 -0.5625,-0.453125 -0.71875,-1.34375 z m 7.75,0.8125 0.125,0.828125 q -0.39063,0.09375 -0.70313,0.09375 -0.5,0 -0.78125,-0.15625 -0.28125,-0.171875 -0.40625,-0.4375 -0.10937,-0.265625 -0.10937,-1.109375 v -3.171875 h -0.6875 v -0.734375 h 0.6875 v -1.359375 l 0.9375,-0.5625 v 1.921875 h 0.9375 v 0.734375 h -0.9375 v 3.234375 q 0,0.390625 0.0469,0.515625 0.0469,0.109375 0.15625,0.1875 0.10938,0.0625 0.32813,0.0625 0.15625,0 0.40625,-0.04687 z m 0.89816,0.84375 v -5.53125 h 0.84375 v 0.84375 q 0.32812,-0.59375 0.59375,-0.78125 0.28125,-0.1875 0.60937,-0.1875 0.46875,0 0.95313,0.3125 l -0.3125,0.859375 q -0.34375,-0.203125 -0.6875,-0.203125 -0.3125,0 -0.5625,0.1875 -0.23438,0.1875 -0.34375,0.515625 -0.15625,0.5 -0.15625,1.09375 v 2.890625 z m 3.56424,-6.546875 v -1.078125 h 0.9375 v 1.078125 z m 0,6.546875 v -5.53125 h 0.9375 v 5.53125 z m 3.22687,0 h -0.85938 v -7.625 h 0.9375 v 2.71875 q 0.59375,-0.75 1.5,-0.75 0.51563,0 0.96875,0.21875 0.45313,0.203125 0.75,0.578125 0.29688,0.359375 0.45313,0.890625 0.17187,0.53125 0.17187,1.125 0,1.421875 -0.70312,2.203125 -0.70313,0.765625 -1.6875,0.765625 -0.96875,0 -1.53125,-0.8125 z m 0,-2.796875 q 0,0.984375 0.26562,1.421875 0.4375,0.734375 1.1875,0.734375 0.625,0 1.0625,-0.53125 0.45313,-0.546875 0.45313,-1.59375 0,-1.078125 -0.4375,-1.59375 -0.42188,-0.515625 -1.03125,-0.515625 -0.60938,0 -1.0625,0.53125 -0.4375,0.53125 -0.4375,1.546875 z m 8.6921,2.796875 v -0.8125 q -0.65625,0.9375 -1.75,0.9375 -0.5,0 -0.92187,-0.1875 -0.42188,-0.1875 -0.625,-0.46875 -0.20313,-0.28125 -0.29688,-0.703125 -0.0469,-0.265625 -0.0469,-0.875 v -3.421875 h 0.9375 v 3.0625 q 0,0.734375 0.0469,1 0.0937,0.359375 0.375,0.578125 0.29688,0.203125 0.70313,0.203125 0.42187,0 0.79687,-0.203125 0.375,-0.21875 0.51563,-0.59375 0.15625,-0.375 0.15625,-1.078125 v -2.96875 h 0.9375 v 5.53125 z m 4.34836,-0.84375 0.125,0.828125 q -0.39062,0.09375 -0.70312,0.09375 -0.5,0 -0.78125,-0.15625 -0.28125,-0.171875 -0.40625,-0.4375 -0.10938,-0.265625 -0.10938,-1.109375 v -3.171875 h -0.6875 v -0.734375 h 0.6875 v -1.359375 l 0.9375,-0.5625 v 1.921875 h 0.9375 v 0.734375 h -0.9375 v 3.234375 q 0,0.390625 0.0469,0.515625 0.0469,0.109375 0.15625,0.1875 0.10937,0.0625 0.32812,0.0625 0.15625,0 0.40625,-0.04687 z m 0.91379,-5.703125 v -1.078125 h 0.9375 v 1.078125 z m 0,6.546875 v -5.53125 h 0.9375 v 5.53125 z m 2.02371,-2.765625 q 0,-1.53125 0.84375,-2.265625 0.71875,-0.625 1.73438,-0.625 1.14062,0 1.85937,0.75 0.73438,0.75 0.73438,2.0625 0,1.0625 -0.32813,1.6875 -0.3125,0.609375 -0.92187,0.953125 -0.60938,0.328125 -1.34375,0.328125 -1.15625,0 -1.875,-0.734375 -0.70313,-0.75 -0.70313,-2.15625 z m 0.95313,0 q 0,1.0625 0.46875,1.59375 0.46875,0.53125 1.15625,0.53125 0.70312,0 1.15625,-0.53125 0.46875,-0.53125 0.46875,-1.625 0,-1.015625 -0.46875,-1.546875 -0.45313,-0.53125 -1.15625,-0.53125 -0.6875,0 -1.15625,0.53125 -0.46875,0.515625 -0.46875,1.578125 z m 5.31714,2.765625 v -5.53125 h 0.84375 v 0.796875 q 0.60937,-0.921875 1.75,-0.921875 0.5,0 0.92187,0.1875 0.42188,0.171875 0.625,0.46875 0.21875,0.296875 0.29688,0.6875 0.0469,0.265625 0.0469,0.921875 v 3.390625 h -0.9375 v -3.359375 q 0,-0.578125 -0.10937,-0.859375 -0.10938,-0.28125 -0.39063,-0.453125 -0.26562,-0.171875 -0.64062,-0.171875 -0.59375,0 -1.03125,0.390625 -0.4375,0.375 -0.4375,1.4375 v 3.015625 z m 6.53588,2.25 h -0.67187 q 1.5625,-2.5 1.5625,-5 0,-0.984375 -0.21875,-1.953125 -0.1875,-0.78125 -0.5,-1.5 -0.20313,-0.46875 -0.84375,-1.5625 h 0.67187 q 0.98438,1.3125 1.45313,2.625 0.39062,1.140625 0.39062,2.375 0,1.40625 -0.53125,2.71875 -0.53125,1.3125 -1.3125,2.296875 z" />
  <path
     style="fill:#ffffff;fill-rule:evenodd"
     inkscape:connector-curvature="0"
     id="path21"
     d="M 19.47638,82.515741 H 189.46063 V 115.52362 H 19.47638 Z" />
  <path
     style="fill-rule:evenodd;stroke:#000000;stroke-width:1;stroke-linecap:butt;stroke-linejoin:round"
     inkscape:connector-curvature="0"
     id="path23"
     d="M 19.47638,82.515741 H 189.46063 V 115.52362 H 19.47638 Z" />
  <path
     style="fill:#000000;fill-rule:nonzero"
     inkscape:connector-curvature="0"
     id="path25"
     d="m 54.58673,97.319681 v -8.42187 H 51.4461 v -1.125 h 7.5625 v 1.125 h -3.15625 v 8.42187 z m 8.81976,-2.21875 1.20313,0.14063 q -0.28125,1.0625 -1.0625,1.65625 -0.76563,0.57812 -1.96875,0.57812 -1.51563,0 -2.40625,-0.9375 -0.89063,-0.9375 -0.89063,-2.60937 0,-1.75 0.89063,-2.70313 0.90625,-0.96875 2.34375,-0.96875 1.39062,0 2.26562,0.9375 0.875,0.9375 0.875,2.65625 0,0.10938 0,0.3125 h -5.15625 q 0.0625,1.14063 0.64063,1.75 0.57812,0.59375 1.4375,0.59375 0.65625,0 1.10937,-0.32812 0.45313,-0.34375 0.71875,-1.07813 z m -3.84375,-1.90625 h 3.85938 q -0.0781,-0.85937 -0.4375,-1.29687 -0.5625,-0.6875 -1.45313,-0.6875 -0.8125,0 -1.35937,0.54687 -0.54688,0.53125 -0.60938,1.4375 z m 11.03748,1.59375 1.15625,0.15625 q -0.1875,1.1875 -0.96875,1.85938 -0.78125,0.67187 -1.92188,0.67187 -1.40625,0 -2.28125,-0.92187 -0.85937,-0.9375 -0.85937,-2.65625 0,-1.125 0.375,-1.96875 0.375,-0.84375 1.125,-1.25 0.76562,-0.42188 1.65625,-0.42188 1.125,0 1.84375,0.57813 0.71875,0.5625 0.92187,1.60937 l -1.14062,0.17188 q -0.17188,-0.70313 -0.59375,-1.04688 -0.40625,-0.35937 -0.98438,-0.35937 -0.89062,0 -1.45312,0.64062 -0.54688,0.64063 -0.54688,2 0,1.40625 0.53125,2.03125 0.54688,0.625 1.40625,0.625 0.6875,0 1.14063,-0.42187 0.46875,-0.42188 0.59375,-1.29688 z m 2.14844,2.53125 v -9.54687 h 1.17187 v 3.42187 q 0.82813,-0.9375 2.07813,-0.9375 0.76562,0 1.32812,0.29688 0.5625,0.29687 0.8125,0.84375 0.25,0.53125 0.25,1.54687 v 4.375 h -1.17187 v -4.375 q 0,-0.89062 -0.39063,-1.28125 -0.375,-0.40625 -1.07812,-0.40625 -0.51563,0 -0.98438,0.28125 -0.45312,0.26563 -0.65625,0.73438 -0.1875,0.45312 -0.1875,1.26562 v 3.78125 z m 7.41247,0 v -6.90625 h 1.0625 v 0.98438 q 0.75,-1.14063 2.1875,-1.14063 0.625,0 1.15625,0.21875 0.53125,0.21875 0.78125,0.59375 0.26563,0.35938 0.375,0.85938 0.0625,0.32812 0.0625,1.14062 v 4.25 h -1.17187 v -4.20312 q 0,-0.71875 -0.14063,-1.0625 -0.14062,-0.35938 -0.48437,-0.5625 -0.34375,-0.21875 -0.8125,-0.21875 -0.75,0 -1.29688,0.46875 -0.54687,0.46875 -0.54687,1.79687 v 3.78125 z m 7.4281,-8.1875 v -1.35937 h 1.17188 v 1.35937 z m 0,8.1875 v -6.90625 h 1.17188 v 6.90625 z m 7.46106,-2.53125 1.15625,0.15625 q -0.1875,1.1875 -0.96875,1.85938 -0.78125,0.67187 -1.92187,0.67187 -1.40625,0 -2.28125,-0.92187 -0.85938,-0.9375 -0.85938,-2.65625 0,-1.125 0.375,-1.96875 0.375,-0.84375 1.125,-1.25 0.76563,-0.42188 1.65625,-0.42188 1.125,0 1.84375,0.57813 0.71875,0.5625 0.92188,1.60937 l -1.14063,0.17188 q -0.17187,-0.70313 -0.59375,-1.04688 -0.40625,-0.35937 -0.98437,-0.35937 -0.89063,0 -1.45313,0.64062 -0.54687,0.64063 -0.54687,2 0,1.40625 0.53125,2.03125 0.54687,0.625 1.40625,0.625 0.6875,0 1.14062,-0.42187 0.46875,-0.42188 0.59375,-1.29688 z m 6.66406,1.67188 q -0.65625,0.5625 -1.26562,0.79687 -0.59375,0.21875 -1.28125,0.21875 -1.14063,0 -1.75,-0.54687 -0.60938,-0.5625 -0.60938,-1.4375 0,-0.5 0.21875,-0.92188 0.23438,-0.42187 0.60938,-0.67187 0.375,-0.25 0.84375,-0.39063 0.34375,-0.0781 1.04687,-0.17187 1.42188,-0.17188 2.09375,-0.40625 0,-0.23438 0,-0.29688 0,-0.71875 -0.32812,-1.01562 -0.45313,-0.39063 -1.34375,-0.39063 -0.8125,0 -1.21875,0.29688 -0.39063,0.28125 -0.57813,1.01562 l -1.14062,-0.15625 q 0.15625,-0.73437 0.51562,-1.1875 0.35938,-0.45312 1.03125,-0.6875 0.67188,-0.25 1.5625,-0.25 0.89063,0 1.4375,0.20313 0.5625,0.20312 0.8125,0.53125 0.26563,0.3125 0.375,0.79687 0.0469,0.29688 0.0469,1.07813 v 1.5625 q 0,1.625 0.0781,2.0625 0.0781,0.4375 0.29688,0.82812 h -1.21875 q -0.1875,-0.35937 -0.23438,-0.85937 z m -0.0937,-2.60938 q -0.64062,0.26563 -1.92187,0.4375 -0.71875,0.10938 -1.01563,0.25 -0.29687,0.125 -0.46875,0.375 -0.15625,0.25 -0.15625,0.54688 0,0.46875 0.34375,0.78125 0.35938,0.3125 1.04688,0.3125 0.67187,0 1.20312,-0.29688 0.53125,-0.29687 0.78125,-0.8125 0.1875,-0.39062 0.1875,-1.17187 z m 2.97498,3.46875 v -9.54687 h 1.17188 v 9.54687 z m 5.05341,0 3.65625,-9.54687 h 1.35937 l 3.90625,9.54687 h -1.4375 l -1.10937,-2.89062 h -3.98438 l -1.04687,2.89062 z m 2.75,-3.92187 h 3.23437 l -1,-2.64063 q -0.45312,-1.20312 -0.67187,-1.96875 -0.1875,0.90625 -0.51563,1.8125 z m 7.01477,3.92187 v -6.90625 h 1.0625 v 1.04688 q 0.40625,-0.73438 0.73437,-0.96875 0.34375,-0.23438 0.76563,-0.23438 0.59375,0 1.20312,0.375 l -0.40625,1.07813 q -0.4375,-0.25 -0.85937,-0.25 -0.39063,0 -0.70313,0.23437 -0.29687,0.23438 -0.42187,0.64063 -0.20313,0.625 -0.20313,1.35937 v 3.625 z m 7.01648,-1.04687 0.17187,1.03125 q -0.5,0.10937 -0.89062,0.10937 -0.64063,0 -1,-0.20312 -0.34375,-0.20313 -0.48438,-0.53125 -0.14062,-0.32813 -0.14062,-1.39063 v -3.96875 h -0.85938 v -0.90625 h 0.85938 v -1.71875 l 1.17187,-0.70312 v 2.42187 h 1.17188 v 0.90625 h -1.17188 v 4.04688 q 0,0.5 0.0469,0.64062 0.0625,0.14063 0.20312,0.23438 0.14063,0.0781 0.40625,0.0781 0.20313,0 0.51563,-0.0469 z m 1.15612,-7.14063 v -1.35937 h 1.17188 v 1.35937 z m 0,8.1875 v -6.90625 h 1.17188 v 6.90625 z m 3.22672,0 v -6 h -1.03125 v -0.90625 h 1.03125 v -0.73437 q 0,-0.70313 0.125,-1.04688 0.17187,-0.45312 0.59375,-0.73437 0.42187,-0.28125 1.20312,-0.28125 0.48438,0 1.09375,0.10937 l -0.1875,1.03125 q -0.35937,-0.0625 -0.6875,-0.0625 -0.53125,0 -0.75,0.23438 -0.21875,0.21875 -0.21875,0.84375 v 0.64062 h 1.34375 v 0.90625 H 131.985 v 6 z m 7.93735,-0.85937 q -0.65625,0.5625 -1.26563,0.79687 -0.59375,0.21875 -1.28125,0.21875 -1.14062,0 -1.75,-0.54687 -0.60937,-0.5625 -0.60937,-1.4375 0,-0.5 0.21875,-0.92188 0.23437,-0.42187 0.60937,-0.67187 0.375,-0.25 0.84375,-0.39063 0.34375,-0.0781 1.04688,-0.17187 1.42187,-0.17188 2.09375,-0.40625 0,-0.23438 0,-0.29688 0,-0.71875 -0.32813,-1.01562 -0.45312,-0.39063 -1.34375,-0.39063 -0.8125,0 -1.21875,0.29688 -0.39062,0.28125 -0.57812,1.01562 l -1.14063,-0.15625 q 0.15625,-0.73437 0.51563,-1.1875 0.35937,-0.45312 1.03125,-0.6875 0.67187,-0.25 1.5625,-0.25 0.89062,0 1.4375,0.20313 0.5625,0.20312 0.8125,0.53125 0.26562,0.3125 0.375,0.79687 0.0469,0.29688 0.0469,1.07813 v 1.5625 q 0,1.625 0.0781,2.0625 0.0781,0.4375 0.29687,0.82812 h -1.21875 q -0.1875,-0.35937 -0.23437,-0.85937 z m -0.0937,-2.60938 q -0.64063,0.26563 -1.92188,0.4375 -0.71875,0.10938 -1.01562,0.25 -0.29688,0.125 -0.46875,0.375 -0.15625,0.25 -0.15625,0.54688 0,0.46875 0.34375,0.78125 0.35937,0.3125 1.04687,0.3125 0.67188,0 1.20313,-0.29688 0.53125,-0.29687 0.78125,-0.8125 0.1875,-0.39062 0.1875,-1.17187 z m 7.50622,0.9375 1.15625,0.15625 q -0.1875,1.1875 -0.96875,1.85938 -0.78125,0.67187 -1.92187,0.67187 -1.40625,0 -2.28125,-0.92187 -0.85938,-0.9375 -0.85938,-2.65625 0,-1.125 0.375,-1.96875 0.375,-0.84375 1.125,-1.25 0.76563,-0.42188 1.65625,-0.42188 1.125,0 1.84375,0.57813 0.71875,0.5625 0.92188,1.60937 l -1.14063,0.17188 q -0.17187,-0.70313 -0.59375,-1.04688 -0.40625,-0.35937 -0.98437,-0.35937 -0.89063,0 -1.45313,0.64062 -0.54687,0.64063 -0.54687,2 0,1.40625 0.53125,2.03125 0.54687,0.625 1.40625,0.625 0.6875,0 1.14062,-0.42187 0.46875,-0.42188 0.59375,-1.29688 z m 4.71094,1.48438 0.17187,1.03125 q -0.5,0.10937 -0.89062,0.10937 -0.64063,0 -1,-0.20312 -0.34375,-0.20313 -0.48438,-0.53125 -0.14062,-0.32813 -0.14062,-1.39063 v -3.96875 h -0.85938 v -0.90625 h 0.85938 v -1.71875 l 1.17187,-0.70312 v 2.42187 h 1.17188 v 0.90625 h -1.17188 v 4.04688 q 0,0.5 0.0469,0.64062 0.0625,0.14063 0.20312,0.23438 0.14063,0.0781 0.40625,0.0781 0.20313,0 0.51563,-0.0469 z m 0.67175,-1.01563 1.15625,-0.1875 q 0.10938,0.70313 0.54688,1.07813 0.45312,0.35937 1.25,0.35937 0.8125,0 1.20312,-0.32812 0.39063,-0.32813 0.39063,-0.76563 0,-0.39062 -0.35938,-0.625 -0.23437,-0.15625 -1.1875,-0.39062 -1.29687,-0.32813 -1.79687,-0.5625 -0.48438,-0.25 -0.75,-0.65625 -0.25,-0.42188 -0.25,-0.9375 0,-0.45313 0.20312,-0.84375 0.21875,-0.40625 0.57813,-0.67188 0.28125,-0.1875 0.75,-0.32812 0.46875,-0.14063 1.01562,-0.14063 0.8125,0 1.42188,0.23438 0.60937,0.23437 0.90625,0.64062 0.29687,0.39063 0.40625,1.0625 l -1.14063,0.15625 q -0.0781,-0.53125 -0.45312,-0.82812 -0.375,-0.3125 -1.0625,-0.3125 -0.8125,0 -1.15625,0.26562 -0.34375,0.26563 -0.34375,0.625 0,0.23438 0.14062,0.42188 0.15625,0.1875 0.45313,0.3125 0.17187,0.0625 1.03125,0.29687 1.25,0.32813 1.73437,0.54688 0.5,0.20312 0.78125,0.60937 0.28125,0.40625 0.28125,1 0,0.59375 -0.34375,1.10938 -0.34375,0.51562 -1,0.79687 -0.64062,0.28125 -1.45312,0.28125 -1.34375,0 -2.04688,-0.5625 -0.70312,-0.5625 -0.90625,-1.65625 z" />
  <path
     style="fill:#000000;fill-rule:nonzero"
     inkscape:connector-curvature="0"
     id="path27"
     d="m 49.81085,113.00968 q -0.78125,-0.98438 -1.32813,-2.29688 -0.53125,-1.3125 -0.53125,-2.71875 0,-1.23436 0.40625,-2.37499 0.46875,-1.3125 1.45313,-2.625 h 0.65625 q -0.625,1.09375 -0.82813,1.54688 -0.3125,0.71875 -0.5,1.5 -0.21875,0.98436 -0.21875,1.96874 0,2.5 1.54688,5 z m 1.37671,-3.90625 0.92187,-0.14063 q 0.0781,0.5625 0.4375,0.85938 0.35938,0.29687 1,0.29687 0.64063,0 0.95313,-0.26562 0.3125,-0.26563 0.3125,-0.625 0,-0.3125 -0.28125,-0.5 -0.1875,-0.125 -0.95313,-0.3125 -1.03125,-0.26563 -1.4375,-0.45313 -0.39062,-0.1875 -0.59375,-0.51562 -0.20312,-0.34375 -0.20312,-0.74999 0,-0.35938 0.17187,-0.67188 0.17188,-0.32812 0.45313,-0.53125 0.21875,-0.15625 0.59375,-0.26562 0.39062,-0.125 0.8125,-0.125 0.65625,0 1.14062,0.1875 0.5,0.1875 0.73438,0.51562 0.23437,0.3125 0.3125,0.85938 l -0.90625,0.125 q -0.0625,-0.4375 -0.375,-0.67188 -0.29688,-0.23437 -0.82813,-0.23437 -0.65625,0 -0.9375,0.21875 -0.26562,0.20312 -0.26562,0.48437 0,0.1875 0.10937,0.32812 0.125,0.15625 0.35938,0.25 0.14062,0.0625 0.82812,0.25 1,0.26562 1.39063,0.4375 0.39062,0.15625 0.60937,0.48437 0.23438,0.3125 0.23438,0.79688 0,0.46875 -0.28125,0.89062 -0.26563,0.40625 -0.78125,0.64063 -0.51563,0.21875 -1.17188,0.21875 -1.07812,0 -1.64062,-0.4375 -0.5625,-0.45313 -0.71875,-1.34375 z m 5.35937,-1.10938 q 0,-1.53124 0.84375,-2.26561 0.71875,-0.625 1.73438,-0.625 1.14062,0 1.85937,0.75 0.73438,0.75 0.73438,2.06249 0,1.0625 -0.32813,1.6875 -0.3125,0.60937 -0.92187,0.95312 -0.60938,0.32813 -1.34375,0.32813 -1.15625,0 -1.875,-0.73438 -0.70313,-0.75 -0.70313,-2.15625 z m 0.95313,0 q 0,1.0625 0.46875,1.59375 0.46875,0.53125 1.15625,0.53125 0.70312,0 1.15625,-0.53125 0.46875,-0.53125 0.46875,-1.625 0,-1.01562 -0.46875,-1.54686 -0.45313,-0.53125 -1.15625,-0.53125 -0.6875,0 -1.15625,0.53125 -0.46875,0.51561 -0.46875,1.57811 z m 8.94214,2.76563 v -0.8125 q -0.65625,0.9375 -1.75,0.9375 -0.5,0 -0.92188,-0.1875 -0.42187,-0.1875 -0.625,-0.46875 -0.20312,-0.28125 -0.29687,-0.70313 -0.0469,-0.26562 -0.0469,-0.875 v -3.42186 h 0.9375 v 3.06249 q 0,0.73437 0.0469,1 0.0937,0.35937 0.375,0.57812 0.29687,0.20313 0.70312,0.20313 0.42188,0 0.79688,-0.20313 0.375,-0.21875 0.51562,-0.59375 0.15625,-0.375 0.15625,-1.07812 v -2.96874 h 0.9375 v 5.53124 z m 2.28589,0 v -5.53124 h 0.84375 v 0.84375 q 0.32812,-0.59375 0.59375,-0.78125 0.28125,-0.1875 0.60937,-0.1875 0.46875,0 0.95313,0.3125 l -0.3125,0.85937 q -0.34375,-0.20312 -0.6875,-0.20312 -0.3125,0 -0.5625,0.1875 -0.23438,0.1875 -0.34375,0.51562 -0.15625,0.49999 -0.15625,1.09374 v 2.89063 z m 7.17358,-2.03125 0.92188,0.125 q -0.15625,0.95312 -0.78125,1.5 -0.625,0.53125 -1.53125,0.53125 -1.125,0 -1.8125,-0.73438 -0.6875,-0.75 -0.6875,-2.125 0,-0.90625 0.29687,-1.57811 0.29688,-0.67188 0.89063,-1 0.60937,-0.34375 1.32812,-0.34375 0.89063,0 1.46875,0.46875 0.57813,0.45312 0.73438,1.28124 l -0.90625,0.14062 q -0.14063,-0.54686 -0.46875,-0.82811 -0.32813,-0.28125 -0.79688,-0.28125 -0.70312,0 -1.15625,0.51562 -0.4375,0.49999 -0.4375,1.59374 0,1.10938 0.42188,1.625 0.4375,0.5 1.125,0.5 0.54687,0 0.90625,-0.34375 0.375,-0.34375 0.48437,-1.04687 z m 5.5,0.25 0.96875,0.125 q -0.23437,0.84375 -0.85937,1.3125 -0.60938,0.46875 -1.57813,0.46875 -1.20312,0 -1.92187,-0.75 -0.70313,-0.75 -0.70313,-2.09375 0,-1.39062 0.71875,-2.15624 0.71875,-0.78125 1.85938,-0.78125 1.10937,0 1.8125,0.76562 0.70312,0.75 0.70312,2.12499 0,0.0781 0,0.23438 h -4.125 q 0.0469,0.92187 0.51563,1.40625 0.46875,0.48437 1.15625,0.48437 0.51562,0 0.875,-0.26562 0.35937,-0.28125 0.57812,-0.875 z m -3.07812,-1.51563 h 3.09375 q -0.0625,-0.68749 -0.35938,-1.04686 -0.45312,-0.53125 -1.15625,-0.53125 -0.64062,0 -1.09375,0.4375 -0.4375,0.42187 -0.48437,1.14061 z m 11.79339,2.60938 q -0.53125,0.45312 -1.01562,0.64062 -0.46875,0.17188 -1.01563,0.17188 -0.92187,0 -1.40625,-0.4375 -0.48437,-0.45313 -0.48437,-1.14063 0,-0.40625 0.17187,-0.73437 0.1875,-0.34375 0.48438,-0.54688 0.3125,-0.20312 0.6875,-0.3125 0.26562,-0.0625 0.82812,-0.14062 1.125,-0.125 1.67188,-0.3125 0,-0.20313 0,-0.25 0,-0.57812 -0.26563,-0.81249 -0.35937,-0.3125 -1.0625,-0.3125 -0.65625,0 -0.98437,0.23437 -0.3125,0.23438 -0.45313,0.81249 l -0.92187,-0.12499 q 0.125,-0.57812 0.40625,-0.9375 0.29687,-0.375 0.82812,-0.5625 0.54688,-0.20312 1.25,-0.20312 0.71875,0 1.15625,0.17187 0.4375,0.17188 0.64063,0.42188 0.21875,0.25 0.29687,0.64062 0.0469,0.23438 0.0469,0.85937 v 1.25 q 0,1.29688 0.0625,1.65625 0.0625,0.34375 0.23437,0.65625 h -0.96875 q -0.15625,-0.29687 -0.1875,-0.6875 z m -0.0781,-2.07813 q -0.51563,0.20313 -1.53125,0.34375 -0.57813,0.0781 -0.82813,0.1875 -0.23437,0.10938 -0.35937,0.3125 -0.125,0.1875 -0.125,0.4375 0,0.375 0.28125,0.625 0.28125,0.25 0.82812,0.25 0.53125,0 0.95313,-0.23437 0.42187,-0.23438 0.625,-0.65625 0.15625,-0.3125 0.15625,-0.9375 z m 2.39526,2.76563 v -5.53124 h 0.84375 v 0.79687 q 0.60938,-0.92187 1.75,-0.92187 0.5,0 0.92188,0.1875 0.42187,0.17187 0.625,0.46875 0.21875,0.29687 0.29687,0.6875 0.0469,0.26562 0.0469,0.92186 v 3.39063 H 95.981 v -3.35938 q 0,-0.57811 -0.10938,-0.85936 -0.10937,-0.28125 -0.39062,-0.45313 -0.26563,-0.17187 -0.64063,-0.17187 -0.59375,0 -1.03125,0.39062 -0.4375,0.375 -0.4375,1.43749 v 3.01563 z m 9.50464,0 v -0.70313 q -0.51563,0.82813 -1.54688,0.82813 -0.65625,0 -1.21875,-0.35938 -0.54687,-0.375 -0.85937,-1.01562 -0.29688,-0.65625 -0.29688,-1.5 0,-0.82813 0.28125,-1.49999 0.28125,-0.6875 0.82813,-1.04688 0.54687,-0.35937 1.23437,-0.35937 0.5,0 0.89063,0.21875 0.39062,0.20312 0.625,0.54687 v -2.73437 h 0.9375 v 7.62499 z m -2.95313,-2.75 q 0,1.04687 0.4375,1.57812 0.45313,0.53125 1.0625,0.53125 0.60938,0 1.03125,-0.5 0.4375,-0.51562 0.4375,-1.53125 0,-1.14062 -0.4375,-1.67186 -0.4375,-0.53125 -1.07812,-0.53125 -0.60938,0 -1.03125,0.51562 -0.42188,0.49999 -0.42188,1.60937 z m 11.84028,2.75 v -0.70313 q -0.51563,0.82813 -1.54688,0.82813 -0.65625,0 -1.21875,-0.35938 -0.54687,-0.375 -0.85937,-1.01562 -0.29688,-0.65625 -0.29688,-1.5 0,-0.82813 0.28125,-1.49999 0.28125,-0.6875 0.82813,-1.04688 0.54687,-0.35937 1.23437,-0.35937 0.5,0 0.89063,0.21875 0.39062,0.20312 0.625,0.54687 v -2.73437 h 0.9375 v 7.62499 z m -2.95313,-2.75 q 0,1.04687 0.4375,1.57812 0.45313,0.53125 1.0625,0.53125 0.60938,0 1.03125,-0.5 0.4375,-0.51562 0.4375,-1.53125 0,-1.14062 -0.4375,-1.67186 -0.4375,-0.53125 -1.07812,-0.53125 -0.60938,0 -1.03125,0.51562 -0.42188,0.49999 -0.42188,1.60937 z m 5.30148,-3.79687 v -1.07812 h 0.9375 v 1.07812 z m 0,6.54687 v -5.53124 h 0.9375 v 5.53124 z m 1.99247,-1.65625 0.92187,-0.14063 q 0.0781,0.5625 0.4375,0.85938 0.35938,0.29687 1,0.29687 0.64063,0 0.95313,-0.26562 0.3125,-0.26563 0.3125,-0.625 0,-0.3125 -0.28125,-0.5 -0.1875,-0.125 -0.95313,-0.3125 -1.03125,-0.26563 -1.4375,-0.45313 -0.39062,-0.1875 -0.59375,-0.51562 -0.20312,-0.34375 -0.20312,-0.74999 0,-0.35938 0.17187,-0.67188 0.17188,-0.32812 0.45313,-0.53125 0.21875,-0.15625 0.59375,-0.26562 0.39062,-0.125 0.8125,-0.125 0.65625,0 1.14062,0.1875 0.5,0.1875 0.73438,0.51562 0.23437,0.3125 0.3125,0.85938 l -0.90625,0.125 q -0.0625,-0.4375 -0.375,-0.67188 -0.29688,-0.23437 -0.82813,-0.23437 -0.65625,0 -0.9375,0.21875 -0.26562,0.20312 -0.26562,0.48437 0,0.1875 0.10937,0.32812 0.125,0.15625 0.35938,0.25 0.14062,0.0625 0.82812,0.25 1,0.26562 1.39063,0.4375 0.39062,0.15625 0.60937,0.48437 0.23438,0.3125 0.23438,0.79688 0,0.46875 -0.28125,0.89062 -0.26563,0.40625 -0.78125,0.64063 -0.51563,0.21875 -1.17188,0.21875 -1.07812,0 -1.64062,-0.4375 -0.5625,-0.45313 -0.71875,-1.34375 z m 7.75,0.8125 0.125,0.82812 q -0.39063,0.0937 -0.70313,0.0937 -0.5,0 -0.78125,-0.15625 -0.28125,-0.17187 -0.40625,-0.4375 -0.10937,-0.26562 -0.10937,-1.10937 v -3.17187 h -0.6875 v -0.73437 h 0.6875 v -1.35938 l 0.9375,-0.5625 v 1.92188 h 0.9375 v 0.73437 h -0.9375 v 3.23437 q 0,0.39062 0.0469,0.51562 0.0469,0.10938 0.15625,0.1875 0.10938,0.0625 0.32813,0.0625 0.15625,0 0.40625,-0.0469 z m 0.89816,0.84375 v -5.53124 h 0.84375 v 0.84375 q 0.32812,-0.59375 0.59375,-0.78125 0.28125,-0.1875 0.60937,-0.1875 0.46875,0 0.95313,0.3125 l -0.3125,0.85937 q -0.34375,-0.20312 -0.6875,-0.20312 -0.3125,0 -0.5625,0.1875 -0.23438,0.1875 -0.34375,0.51562 -0.15625,0.49999 -0.15625,1.09374 v 2.89063 z m 3.56424,-6.54687 v -1.07812 h 0.9375 v 1.07812 z m 0,6.54687 v -5.53124 h 0.9375 v 5.53124 z m 3.22687,0 h -0.85938 v -7.62499 h 0.9375 v 2.71875 q 0.59375,-0.75 1.5,-0.75 0.51563,0 0.96875,0.21875 0.45313,0.20312 0.75,0.57812 0.29688,0.35938 0.45313,0.89063 0.17187,0.53124 0.17187,1.12499 0,1.42187 -0.70312,2.20312 -0.70313,0.76563 -1.6875,0.76563 -0.96875,0 -1.53125,-0.8125 z m 0,-2.79688 q 0,0.98438 0.26562,1.42188 0.4375,0.73437 1.1875,0.73437 0.625,0 1.0625,-0.53125 0.45313,-0.54687 0.45313,-1.59375 0,-1.07812 -0.4375,-1.59374 -0.42188,-0.51562 -1.03125,-0.51562 -0.60938,0 -1.0625,0.53125 -0.4375,0.53124 -0.4375,1.54686 z m 8.6921,2.79688 v -0.8125 q -0.65625,0.9375 -1.75,0.9375 -0.5,0 -0.92187,-0.1875 -0.42188,-0.1875 -0.625,-0.46875 -0.20313,-0.28125 -0.29688,-0.70313 -0.0469,-0.26562 -0.0469,-0.875 v -3.42186 h 0.9375 v 3.06249 q 0,0.73437 0.0469,1 0.0937,0.35937 0.375,0.57812 0.29688,0.20313 0.70313,0.20313 0.42187,0 0.79687,-0.20313 0.375,-0.21875 0.51563,-0.59375 0.15625,-0.375 0.15625,-1.07812 v -2.96874 h 0.9375 v 5.53124 z m 4.34836,-0.84375 0.125,0.82812 q -0.39062,0.0937 -0.70312,0.0937 -0.5,0 -0.78125,-0.15625 -0.28125,-0.17187 -0.40625,-0.4375 -0.10938,-0.26562 -0.10938,-1.10937 v -3.17187 h -0.6875 v -0.73437 h 0.6875 v -1.35938 l 0.9375,-0.5625 v 1.92188 h 0.9375 v 0.73437 h -0.9375 v 3.23437 q 0,0.39062 0.0469,0.51562 0.0469,0.10938 0.15625,0.1875 0.10937,0.0625 0.32812,0.0625 0.15625,0 0.40625,-0.0469 z m 0.91379,-5.70312 v -1.07812 h 0.9375 v 1.07812 z m 0,6.54687 v -5.53124 h 0.9375 v 5.53124 z m 2.02371,-2.76563 q 0,-1.53124 0.84375,-2.26561 0.71875,-0.625 1.73438,-0.625 1.14062,0 1.85937,0.75 0.73438,0.75 0.73438,2.06249 0,1.0625 -0.32813,1.6875 -0.3125,0.60937 -0.92187,0.95312 -0.60938,0.32813 -1.34375,0.32813 -1.15625,0 -1.875,-0.73438 -0.70313,-0.75 -0.70313,-2.15625 z m 0.95313,0 q 0,1.0625 0.46875,1.59375 0.46875,0.53125 1.15625,0.53125 0.70312,0 1.15625,-0.53125 0.46875,-0.53125 0.46875,-1.625 0,-1.01562 -0.46875,-1.54686 -0.45313,-0.53125 -1.15625,-0.53125 -0.6875,0 -1.15625,0.53125 -0.46875,0.51561 -0.46875,1.57811 z m 5.31714,2.76563 v -5.53124 h 0.84375 v 0.79687 q 0.60937,-0.92187 1.75,-0.92187 0.5,0 0.92187,0.1875 0.42188,0.17187 0.625,0.46875 0.21875,0.29687 0.29688,0.6875 0.0469,0.26562 0.0469,0.92186 v 3.39063 h -0.9375 v -3.35938 q 0,-0.57811 -0.10937,-0.85936 -0.10938,-0.28125 -0.39063,-0.45313 -0.26562,-0.17187 -0.64062,-0.17187 -0.59375,0 -1.03125,0.39062 -0.4375,0.375 -0.4375,1.43749 v 3.01563 z m 6.53588,2.25 h -0.67187 q 1.5625,-2.5 1.5625,-5 0,-0.98438 -0.21875,-1.95312 -0.1875,-0.78125 -0.5,-1.5 -0.20313,-0.46875 -0.84375,-1.5625 h 0.67187 q 0.98438,1.3125 1.45313,2.625 0.39062,1.14063 0.39062,2.37499 0,1.40625 -0.53125,2.71875 -0.53125,1.3125 -1.3125,2.29688 z" />
  <path
     style="fill:#ffffff;fill-rule:evenodd"
     inkscape:connector-curvature="0"
     id="path29"
     d="m 5.5,175.5 h 144.97638 v 33.00787 H 5.5 Z" />
  <path
     style="fill-rule:evenodd;stroke:#000000;stroke-width:1;stroke-linecap:butt;stroke-linejoin:round"
     inkscape:connector-curvature="0"
     id="path31"
     d="m 5.5,175.5 h 144.97638 v 33.00787 H 5.5 Z" />
  <path
     style="fill:#000000;fill-rule:nonzero"
     inkscape:connector-curvature="0"
     id="path33"
     d="m 68.11318,190.30393 v -8.42188 h -3.14063 v -1.125 h 7.5625 v 1.125 H 69.3788 v 8.42188 z m 12.51636,-3.34375 1.26562,0.3125 q -0.39062,1.5625 -1.42187,2.375 -1.03125,0.8125 -2.53125,0.8125 -1.53125,0 -2.5,-0.625 -0.96875,-0.625 -1.48438,-1.8125 -0.5,-1.1875 -0.5,-2.5625 0,-1.48438 0.5625,-2.59375 0.57813,-1.10938 1.625,-1.6875 1.0625,-0.57813 2.32813,-0.57813 1.42187,0 2.39062,0.73438 0.98438,0.71875 1.375,2.04687 l -1.25,0.29688 q -0.32812,-1.04688 -0.96875,-1.51563 -0.625,-0.48437 -1.57812,-0.48437 -1.09375,0 -1.84375,0.53125 -0.73438,0.53125 -1.03125,1.42187 -0.29688,0.875 -0.29688,1.82813 0,1.21875 0.34375,2.125 0.35938,0.90625 1.10938,1.35937 0.75,0.4375 1.625,0.4375 1.0625,0 1.79687,-0.60937 0.73438,-0.60938 0.98438,-1.8125 z m 2.76577,3.34375 v -9.54688 h 1.26563 v 4.73438 l 4.73437,-4.73438 h 1.71875 l -4,3.875 4.17188,5.67188 h -1.65625 l -3.40625,-4.82813 -1.5625,1.51563 v 3.3125 z" />
  <path
     style="fill:#000000;fill-rule:nonzero"
     inkscape:connector-curvature="0"
     id="path35"
     d="m 23.33052,205.99393 q -0.78125,-0.98438 -1.32813,-2.29688 -0.53125,-1.3125 -0.53125,-2.71875 0,-1.23437 0.40625,-2.375 0.46875,-1.3125 1.45313,-2.625 h 0.65625 q -0.625,1.09375 -0.82813,1.54688 -0.3125,0.71875 -0.5,1.5 -0.21875,0.98437 -0.21875,1.96875 0,2.5 1.54688,5 z m 1.37674,-3.90625 0.92187,-0.14063 q 0.0781,0.5625 0.4375,0.85938 0.35938,0.29687 1,0.29687 0.64063,0 0.95313,-0.26562 0.3125,-0.26563 0.3125,-0.625 0,-0.3125 -0.28125,-0.5 -0.1875,-0.125 -0.95313,-0.3125 -1.03125,-0.26563 -1.4375,-0.45313 -0.39062,-0.1875 -0.59375,-0.51562 -0.20312,-0.34375 -0.20312,-0.75 0,-0.35938 0.17187,-0.67188 0.17188,-0.32812 0.45313,-0.53125 0.21875,-0.15625 0.59375,-0.26562 0.39062,-0.125 0.8125,-0.125 0.65625,0 1.14062,0.1875 0.50002,0.1875 0.73439,0.51562 0.23438,0.3125 0.3125,0.85938 l -0.90626,0.125 q -0.0625,-0.4375 -0.375,-0.67188 -0.29688,-0.23437 -0.82813,-0.23437 -0.65625,0 -0.9375,0.21875 -0.26562,0.20312 -0.26562,0.48437 0,0.1875 0.10937,0.32813 0.125,0.15625 0.35938,0.25 0.14062,0.0625 0.82812,0.25 1,0.26562 1.39063,0.4375 0.39064,0.15625 0.60939,0.48437 0.23437,0.3125 0.23437,0.79688 0,0.46875 -0.28125,0.89062 -0.26562,0.40625 -0.78126,0.64063 -0.51563,0.21875 -1.17188,0.21875 -1.07812,0 -1.64062,-0.4375 -0.5625,-0.45313 -0.71875,-1.34375 z m 5.35939,-1.10938 q 0,-1.53125 0.84375,-2.26562 0.71875,-0.625 1.73437,-0.625 1.14063,0 1.85938,0.75 0.73437,0.75 0.73437,2.0625 0,1.0625 -0.32812,1.6875 -0.3125,0.60937 -0.92188,0.95312 -0.60937,0.32813 -1.34375,0.32813 -1.15625,0 -1.875,-0.73438 -0.70312,-0.75 -0.70312,-2.15625 z m 0.95312,0 q 0,1.0625 0.46875,1.59375 0.46875,0.53125 1.15625,0.53125 0.70313,0 1.15625,-0.53125 0.46875,-0.53125 0.46875,-1.625 0,-1.01562 -0.46875,-1.54687 -0.45312,-0.53125 -1.15625,-0.53125 -0.6875,0 -1.15625,0.53125 -0.46875,0.51562 -0.46875,1.57812 z m 8.94211,2.76563 v -0.8125 q -0.65625,0.9375 -1.75,0.9375 -0.5,0 -0.92187,-0.1875 -0.42188,-0.1875 -0.625,-0.46875 -0.20313,-0.28125 -0.29688,-0.70313 -0.0469,-0.26562 -0.0469,-0.875 v -3.42187 h 0.9375 v 3.0625 q 0,0.73437 0.0469,1 0.0937,0.35937 0.375,0.57812 0.29688,0.20313 0.70313,0.20313 0.42187,0 0.79687,-0.20313 0.375,-0.21875 0.51563,-0.59375 0.15625,-0.375 0.15625,-1.07812 v -2.96875 h 0.9375 v 5.53125 z m 2.28589,0 v -5.53125 h 0.84375 v 0.84375 q 0.32813,-0.59375 0.59375,-0.78125 0.28125,-0.1875 0.60938,-0.1875 0.46875,0 0.95312,0.3125 l -0.3125,0.85937 q -0.34375,-0.20312 -0.6875,-0.20312 -0.3125,0 -0.5625,0.1875 -0.23437,0.1875 -0.34375,0.51562 -0.15625,0.5 -0.15625,1.09375 v 2.89063 z m 7.17362,-2.03125 0.92187,0.125 q -0.15625,0.95312 -0.78125,1.5 -0.625,0.53125 -1.53125,0.53125 -1.125,0 -1.8125,-0.73438 -0.6875,-0.75 -0.6875,-2.125 0,-0.90625 0.29688,-1.57812 0.29687,-0.67188 0.89062,-1 0.60938,-0.34375 1.32813,-0.34375 0.89062,0 1.46875,0.46875 0.57812,0.45312 0.73437,1.28125 l -0.90625,0.14062 q -0.14062,-0.54687 -0.46875,-0.82812 -0.32812,-0.28125 -0.79687,-0.28125 -0.70313,0 -1.15625,0.51562 -0.4375,0.5 -0.4375,1.59375 0,1.10938 0.42187,1.625 0.4375,0.5 1.125,0.5 0.54688,0 0.90625,-0.34375 0.375,-0.34375 0.48438,-1.04687 z m 5.5,0.25 0.96875,0.125 q -0.23438,0.84375 -0.85938,1.3125 -0.60937,0.46875 -1.57812,0.46875 -1.20313,0 -1.92188,-0.75 -0.70312,-0.75 -0.70312,-2.09375 0,-1.39063 0.71875,-2.15625 0.71875,-0.78125 1.85937,-0.78125 1.10938,0 1.8125,0.76562 0.70313,0.75 0.70313,2.125 0,0.0781 0,0.23438 h -4.125 q 0.0469,0.92187 0.51562,1.40625 0.46875,0.48437 1.15625,0.48437 0.51563,0 0.875,-0.26562 0.35938,-0.28125 0.57813,-0.875 z m -3.07813,-1.51563 h 3.09375 q -0.0625,-0.6875 -0.35937,-1.04687 -0.45313,-0.53125 -1.15625,-0.53125 -0.64063,0 -1.09375,0.4375 -0.4375,0.42187 -0.48438,1.14062 z m 11.7934,2.60938 q -0.53125,0.45312 -1.01563,0.64062 -0.46875,0.17188 -1.01562,0.17188 -0.92188,0 -1.40625,-0.4375 -0.48438,-0.45313 -0.48438,-1.14063 0,-0.40625 0.17188,-0.73437 0.1875,-0.34375 0.48437,-0.54688 0.3125,-0.20312 0.6875,-0.3125 0.26563,-0.0625 0.82813,-0.14062 1.125,-0.125 1.67187,-0.3125 0,-0.20313 0,-0.25 0,-0.57813 -0.26562,-0.8125 -0.35938,-0.3125 -1.0625,-0.3125 -0.65625,0 -0.98438,0.23437 -0.3125,0.23438 -0.45312,0.8125 l -0.92188,-0.125 q 0.125,-0.57812 0.40625,-0.9375 0.29688,-0.375 0.82813,-0.5625 0.54687,-0.20312 1.25,-0.20312 0.71875,0 1.15625,0.17187 0.4375,0.17188 0.64062,0.42188 0.21875,0.25 0.29688,0.64062 0.0469,0.23438 0.0469,0.85938 v 1.25 q 0,1.29687 0.0625,1.65625 0.0625,0.34375 0.23438,0.65625 h -0.96875 q -0.15625,-0.29688 -0.1875,-0.6875 z m -0.0781,-2.07813 q -0.51562,0.20313 -1.53125,0.34375 -0.57812,0.0781 -0.82812,0.1875 -0.23438,0.10938 -0.35938,0.3125 -0.125,0.1875 -0.125,0.4375 0,0.375 0.28125,0.625 0.28125,0.25 0.82813,0.25 0.53125,0 0.95312,-0.23437 0.42188,-0.23438 0.625,-0.65625 0.15625,-0.3125 0.15625,-0.9375 z m 2.39524,2.76563 v -5.53125 h 0.84375 v 0.79687 q 0.60937,-0.92187 1.75,-0.92187 0.5,0 0.92187,0.1875 0.42188,0.17187 0.625,0.46875 0.21875,0.29687 0.29688,0.6875 0.0469,0.26562 0.0469,0.92187 v 3.39063 h -0.9375 v -3.35938 q 0,-0.57812 -0.10937,-0.85937 -0.10938,-0.28125 -0.39063,-0.45313 -0.26562,-0.17187 -0.64062,-0.17187 -0.59375,0 -1.03125,0.39062 -0.4375,0.375 -0.4375,1.4375 v 3.01563 z m 9.50463,0 v -0.70313 q -0.51562,0.82813 -1.54687,0.82813 -0.65625,0 -1.21875,-0.35938 -0.54688,-0.375 -0.85938,-1.01562 -0.29687,-0.65625 -0.29687,-1.5 0,-0.82813 0.28125,-1.5 0.28125,-0.6875 0.82812,-1.04688 0.54688,-0.35937 1.23438,-0.35937 0.5,0 0.89062,0.21875 0.39063,0.20312 0.625,0.54687 v -2.73437 h 0.9375 v 7.625 z m -2.95312,-2.75 q 0,1.04687 0.4375,1.57812 0.45312,0.53125 1.0625,0.53125 0.60937,0 1.03125,-0.5 0.4375,-0.51562 0.4375,-1.53125 0,-1.14062 -0.4375,-1.67187 -0.4375,-0.53125 -1.07813,-0.53125 -0.60937,0 -1.03125,0.51562 -0.42187,0.5 -0.42187,1.60938 z m 11.84027,2.75 v -0.70313 q -0.51562,0.82813 -1.54687,0.82813 -0.65625,0 -1.21875,-0.35938 -0.54688,-0.375 -0.85938,-1.01562 -0.29687,-0.65625 -0.29687,-1.5 0,-0.82813 0.28125,-1.5 0.28125,-0.6875 0.82812,-1.04688 0.54688,-0.35937 1.23438,-0.35937 0.5,0 0.89062,0.21875 0.39063,0.20312 0.625,0.54687 v -2.73437 h 0.9375 v 7.625 z m -2.95312,-2.75 q 0,1.04687 0.4375,1.57812 0.45312,0.53125 1.0625,0.53125 0.60937,0 1.03125,-0.5 0.4375,-0.51562 0.4375,-1.53125 0,-1.14062 -0.4375,-1.67187 -0.4375,-0.53125 -1.07813,-0.53125 -0.60937,0 -1.03125,0.51562 -0.42187,0.5 -0.42187,1.60938 z m 5.30148,-3.79688 v -1.07812 h 0.9375 v 1.07812 z m 0,6.54688 v -5.53125 h 0.9375 v 5.53125 z m 1.99249,-1.65625 0.92188,-0.14063 q 0.0781,0.5625 0.4375,0.85938 0.35937,0.29687 1,0.29687 0.64062,0 0.95312,-0.26562 0.3125,-0.26563 0.3125,-0.625 0,-0.3125 -0.28125,-0.5 -0.1875,-0.125 -0.95312,-0.3125 -1.03125,-0.26563 -1.4375,-0.45313 -0.39063,-0.1875 -0.59375,-0.51562 -0.20313,-0.34375 -0.20313,-0.75 0,-0.35938 0.17188,-0.67188 0.17187,-0.32812 0.45312,-0.53125 0.21875,-0.15625 0.59375,-0.26562 0.39063,-0.125 0.8125,-0.125 0.65625,0 1.14063,0.1875 0.5,0.1875 0.73437,0.51562 0.23438,0.3125 0.3125,0.85938 l -0.90625,0.125 q -0.0625,-0.4375 -0.375,-0.67188 -0.29687,-0.23437 -0.82812,-0.23437 -0.65625,0 -0.9375,0.21875 -0.26563,0.20312 -0.26563,0.48437 0,0.1875 0.10938,0.32813 0.125,0.15625 0.35937,0.25 0.14063,0.0625 0.82813,0.25 1,0.26562 1.39062,0.4375 0.39063,0.15625 0.60938,0.48437 0.23437,0.3125 0.23437,0.79688 0,0.46875 -0.28125,0.89062 -0.26562,0.40625 -0.78125,0.64063 -0.51562,0.21875 -1.17187,0.21875 -1.07813,0 -1.64063,-0.4375 -0.5625,-0.45313 -0.71875,-1.34375 z m 7.75,0.8125 0.125,0.82812 q -0.39062,0.0937 -0.70312,0.0937 -0.5,0 -0.78125,-0.15625 -0.28125,-0.17187 -0.40625,-0.4375 -0.10938,-0.26562 -0.10938,-1.10937 V 198.947 h -0.6875 v -0.73437 h 0.6875 v -1.35938 l 0.9375,-0.5625 v 1.92188 h 0.9375 v 0.73437 h -0.9375 v 3.23438 q 0,0.39062 0.0469,0.51562 0.0469,0.10938 0.15625,0.1875 0.10937,0.0625 0.32812,0.0625 0.15625,0 0.40625,-0.0469 z m 0.89813,0.84375 v -5.53125 h 0.84375 v 0.84375 q 0.32813,-0.59375 0.59375,-0.78125 0.28125,-0.1875 0.60938,-0.1875 0.46875,0 0.95312,0.3125 l -0.3125,0.85937 q -0.34375,-0.20312 -0.6875,-0.20312 -0.3125,0 -0.5625,0.1875 -0.23437,0.1875 -0.34375,0.51562 -0.15625,0.5 -0.15625,1.09375 v 2.89063 z m 3.56424,-6.54688 v -1.07812 h 0.9375 v 1.07812 z m 0,6.54688 v -5.53125 h 0.9375 v 5.53125 z m 3.22687,0 h -0.85937 v -7.625 h 0.9375 v 2.71875 q 0.59375,-0.75 1.5,-0.75 0.51562,0 0.96875,0.21875 0.45312,0.20312 0.75,0.57812 0.29687,0.35938 0.45312,0.89063 0.17188,0.53125 0.17188,1.125 0,1.42187 -0.70313,2.20312 -0.70312,0.76563 -1.6875,0.76563 -0.96875,0 -1.53125,-0.8125 z m 0,-2.79688 q 0,0.98438 0.26563,1.42188 0.4375,0.73437 1.1875,0.73437 0.625,0 1.0625,-0.53125 0.45312,-0.54687 0.45312,-1.59375 0,-1.07812 -0.4375,-1.59375 -0.42187,-0.51562 -1.03125,-0.51562 -0.60937,0 -1.0625,0.53125 -0.4375,0.53125 -0.4375,1.54687 z m 8.69211,2.79688 v -0.8125 q -0.65625,0.9375 -1.75,0.9375 -0.5,0 -0.92188,-0.1875 -0.42187,-0.1875 -0.625,-0.46875 -0.20312,-0.28125 -0.29687,-0.70313 -0.0469,-0.26562 -0.0469,-0.875 v -3.42187 h 0.9375 v 3.0625 q 0,0.73437 0.0469,1 0.0937,0.35937 0.375,0.57812 0.29687,0.20313 0.70312,0.20313 0.42188,0 0.79688,-0.20313 0.375,-0.21875 0.51562,-0.59375 0.15625,-0.375 0.15625,-1.07812 v -2.96875 h 0.9375 v 5.53125 z m 4.34839,-0.84375 0.125,0.82812 q -0.39063,0.0937 -0.70313,0.0937 -0.5,0 -0.78125,-0.15625 -0.28125,-0.17187 -0.40625,-0.4375 -0.10937,-0.26562 -0.10937,-1.10937 V 198.947 h -0.6875 v -0.73437 h 0.6875 v -1.35938 l 0.9375,-0.5625 v 1.92188 h 0.9375 v 0.73437 h -0.9375 v 3.23438 q 0,0.39062 0.0469,0.51562 0.0469,0.10938 0.15625,0.1875 0.10938,0.0625 0.32813,0.0625 0.15625,0 0.40625,-0.0469 z m 0.91375,-5.70313 v -1.07812 h 0.9375 v 1.07812 z m 0,6.54688 v -5.53125 h 0.9375 v 5.53125 z m 2.02375,-2.76563 q 0,-1.53125 0.84375,-2.26562 0.71875,-0.625 1.73437,-0.625 1.14063,0 1.85938,0.75 0.73437,0.75 0.73437,2.0625 0,1.0625 -0.32812,1.6875 -0.3125,0.60937 -0.92188,0.95312 -0.60937,0.32813 -1.34375,0.32813 -1.15625,0 -1.875,-0.73438 -0.70312,-0.75 -0.70312,-2.15625 z m 0.95312,0 q 0,1.0625 0.46875,1.59375 0.46875,0.53125 1.15625,0.53125 0.70313,0 1.15625,-0.53125 0.46875,-0.53125 0.46875,-1.625 0,-1.01562 -0.46875,-1.54687 -0.45312,-0.53125 -1.15625,-0.53125 -0.6875,0 -1.15625,0.53125 -0.46875,0.51562 -0.46875,1.57812 z m 5.31711,2.76563 v -5.53125 h 0.84375 v 0.79687 q 0.60938,-0.92187 1.75,-0.92187 0.5,0 0.92188,0.1875 0.42187,0.17187 0.625,0.46875 0.21875,0.29687 0.29687,0.6875 0.0469,0.26562 0.0469,0.92187 v 3.39063 h -0.9375 v -3.35938 q 0,-0.57812 -0.10938,-0.85937 -0.10937,-0.28125 -0.39062,-0.45313 -0.26563,-0.17187 -0.64063,-0.17187 -0.59375,0 -1.03125,0.39062 -0.4375,0.375 -0.4375,1.4375 v 3.01563 z m 6.53589,2.25 h -0.67188 q 1.5625,-2.5 1.5625,-5 0,-0.98438 -0.21875,-1.95313 -0.1875,-0.78125 -0.5,-1.5 -0.20312,-0.46875 -0.84375,-1.5625 h 0.67188 q 0.98437,1.3125 1.45312,2.625 0.39063,1.14063 0.39063,2.375 0,1.40625 -0.53125,2.71875 -0.53125,1.3125 -1.3125,2.29688 z" />
  <path
     style="fill:#ffffff;fill-rule:evenodd"
     inkscape:connector-curvature="0"
     id="path37"
     d="m 39.47638,136.01181 v 0 c 0,-6.34911 5.14697,-11.49606 11.49606,-11.49606 v 0 c 3.04895,0 5.97303,1.21118 8.12894,3.36711 2.15594,2.15593 3.36713,5.08 3.36713,8.12895 v 0 c 0,6.34909 -5.14698,11.49606 -11.49607,11.49606 v 0 c -6.34909,0 -11.49606,-5.14697 -11.49606,-11.49606 z" />
  <path
     style="fill-rule:evenodd;stroke:#000000;stroke-width:1;stroke-linecap:butt;stroke-linejoin:round"
     inkscape:connector-curvature="0"
     id="path39"
     d="m 39.47638,136.01181 v 0 c 0,-6.34911 5.14697,-11.49606 11.49606,-11.49606 v 0 c 3.04895,0 5.97303,1.21118 8.12894,3.36711 2.15594,2.15593 3.36713,5.08 3.36713,8.12895 v 0 c 0,6.34909 -5.14698,11.49606 -11.49607,11.49606 v 0 c -6.34909,0 -11.49606,-5.14697 -11.49606,-11.49606 z" />
  <path
     style="fill:#ffffff;fill-rule:evenodd"
     inkscape:connector-curvature="0"
     id="path41"
     d="m 97.47638,136.01181 v 0 c 0,-6.34911 5.14697,-11.49606 11.49606,-11.49606 v 0 c 3.04895,0 5.97303,1.21118 8.12894,3.36711 2.15594,2.15593 3.36713,5.08 3.36713,8.12895 v 0 c 0,6.34909 -5.14698,11.49606 -11.49607,11.49606 v 0 c -6.34909,0 -11.49606,-5.14697 -11.49606,-11.49606 z" />
  <path
     style="fill-rule:evenodd;stroke:#000000;stroke-width:1;stroke-linecap:butt;stroke-linejoin:round"
     inkscape:connector-curvature="0"
     id="path43"
     d="m 97.47638,136.01181 v 0 c 0,-6.34911 5.14697,-11.49606 11.49606,-11.49606 v 0 c 3.04895,0 5.97303,1.21118 8.12894,3.36711 2.15594,2.15593 3.36713,5.08 3.36713,8.12895 v 0 c 0,6.34909 -5.14698,11.49606 -11.49607,11.49606 v 0 c -6.34909,0 -11.49606,-5.14697 -11.49606,-11.49606 z" />
  <path
     style="fill:#ffffff;fill-rule:evenodd"
     inkscape:connector-curvature="0"
     id="path45"
     d="m 26.49213,221.50788 h 123.96851 v 33.00786 H 26.49213 Z" />
  <path
     style="fill-rule:evenodd;stroke:#000000;stroke-width:1;stroke-linecap:butt;stroke-linejoin:round"
     inkscape:connector-curvature="0"
     id="path47"
     d="m 26.49213,221.50788 h 123.96851 v 33.00786 H 26.49213 Z" />
  <path
     style="fill:#000000;fill-rule:nonzero"
     inkscape:connector-curvature="0"
     id="path49"
     d="m 62.59695,231.46805 1.26562,0.3125 q -0.39062,1.5625 -1.42187,2.375 -1.03125,0.81252 -2.53125,0.81252 -1.53125,0 -2.5,-0.62502 -0.96875,-0.625 -1.48438,-1.8125 -0.5,-1.1875 -0.5,-2.5625 0,-1.48438 0.5625,-2.59375 0.57813,-1.10938 1.625,-1.6875 1.0625,-0.57813 2.32813,-0.57813 1.42187,0 2.39062,0.73438 0.98438,0.71875 1.375,2.04687 l -1.25,0.29688 q -0.32812,-1.04688 -0.96875,-1.51563 -0.625,-0.48437 -1.57812,-0.48437 -1.09375,0 -1.84375,0.53125 -0.73438,0.53125 -1.03125,1.42187 -0.29688,0.875 -0.29688,1.82813 0,1.21875 0.34375,2.125 0.35938,0.90625 1.10938,1.35937 0.75,0.4375 1.625,0.4375 1.0625,0 1.79687,-0.60937 0.73438,-0.60938 0.98438,-1.8125 z m 2.23453,-0.10938 q 0,-1.92187 1.07812,-2.84375 0.89063,-0.76562 2.17188,-0.76562 1.42187,0 2.32812,0.9375 0.90625,0.92187 0.90625,2.57812 0,1.32813 -0.40625,2.09375 -0.39062,0.76563 -1.15625,1.1875 -0.76562,0.4219 -1.67187,0.4219 -1.45313,0 -2.35938,-0.9219 -0.89062,-0.9375 -0.89062,-2.6875 z m 1.20312,0 q 0,1.32813 0.57813,1.98438 0.59375,0.65625 1.46875,0.65625 0.875,0 1.45312,-0.65625 0.57813,-0.67188 0.57813,-2.03125 0,-1.28125 -0.59375,-1.9375 -0.57813,-0.65625 -1.4375,-0.65625 -0.875,0 -1.46875,0.65625 -0.57813,0.65625 -0.57813,1.98437 z m 6.64685,3.45313 v -6.90625 h 1.04688 v 0.96875 q 0.32812,-0.51563 0.85937,-0.8125 0.54688,-0.3125 1.23438,-0.3125 0.78125,0 1.26562,0.3125 0.48438,0.3125 0.6875,0.89062 0.82813,-1.20312 2.14063,-1.20312 1.03125,0 1.57812,0.57812 0.5625,0.5625 0.5625,1.73438 v 4.75 h -1.17187 v -4.35938 q 0,-0.70312 -0.125,-1 -0.10938,-0.3125 -0.40625,-0.5 -0.29688,-0.1875 -0.70313,-0.1875 -0.71875,0 -1.20312,0.48438 -0.48438,0.48437 -0.48438,1.54687 v 4.01563 h -1.17187 v -4.48438 q 0,-0.78125 -0.29688,-1.17187 -0.28125,-0.39063 -0.92187,-0.39063 -0.5,0 -0.92188,0.26563 -0.42187,0.25 -0.60937,0.75 -0.1875,0.5 -0.1875,1.45312 v 3.57813 z m 11.10242,2.65627 v -9.56252 H 84.862 v 0.89063 q 0.375,-0.53125 0.84375,-0.78125 0.48437,-0.26563 1.15625,-0.26563 0.875,0 1.54687,0.45313 0.6875,0.45312 1.03125,1.28125 0.34375,0.82812 0.34375,1.82812 0,1.04688 -0.375,1.90625 -0.375,0.84375 -1.10937,1.29688 -0.71875,0.45314 -1.53125,0.45314 -0.57813,0 -1.04688,-0.25002 -0.46875,-0.25 -0.76562,-0.625 v 3.37502 z m 1.0625,-6.07815 q 0,1.34375 0.53125,1.98438 0.54688,0.625 1.3125,0.625 0.78125,0 1.34375,-0.65625 0.5625,-0.65625 0.5625,-2.04688 0,-1.3125 -0.54687,-1.96875 -0.54688,-0.67187 -1.29688,-0.67187 -0.75,0 -1.32812,0.70312 -0.57813,0.70313 -0.57813,2.03125 z m 10.8656,2.5625 q -0.65625,0.5625 -1.26562,0.79688 -0.59375,0.21877 -1.28125,0.21877 -1.14063,0 -1.75,-0.5469 -0.60938,-0.5625 -0.60938,-1.4375 0,-0.5 0.21875,-0.92187 0.23438,-0.42188 0.60938,-0.67188 0.375,-0.25 0.84375,-0.39062 0.34375,-0.0781 1.04687,-0.17188 1.42188,-0.17187 2.09375,-0.40625 0,-0.23437 0,-0.29687 0,-0.71875 -0.32812,-1.01563 -0.45313,-0.39062 -1.34375,-0.39062 -0.8125,0 -1.21875,0.29687 -0.39063,0.28125 -0.57813,1.01563 l -1.14062,-0.15625 q 0.15625,-0.73438 0.51562,-1.1875 0.35938,-0.45313 1.03125,-0.6875 0.67188,-0.25 1.5625,-0.25 0.89063,0 1.4375,0.20312 0.5625,0.20313 0.8125,0.53125 0.26563,0.3125 0.375,0.79688 0.0469,0.29687 0.0469,1.07812 v 1.5625 q 0,1.625 0.0781,2.0625 0.0781,0.4375 0.29688,0.82813 h -1.21875 q -0.1875,-0.35938 -0.23438,-0.85938 z m -0.0937,-2.60937 q -0.64062,0.26562 -1.92187,0.4375 -0.71875,0.10937 -1.01563,0.25 -0.29687,0.125 -0.46875,0.375 -0.15625,0.25 -0.15625,0.54687 0,0.46875 0.34375,0.78125 0.35938,0.3125 1.04688,0.3125 0.67187,0 1.20312,-0.29687 0.53125,-0.29688 0.78125,-0.8125 0.1875,-0.39063 0.1875,-1.17188 z m 5.5531,2.42187 0.17188,1.03125 q -0.5,0.1094 -0.89063,0.1094 -0.64062,0 -1,-0.20315 -0.34375,-0.20312 -0.48437,-0.53125 -0.14063,-0.32812 -0.14063,-1.39062 v -3.96875 h -0.85937 v -0.90625 h 0.85937 v -1.71875 l 1.17188,-0.70313 v 2.42188 h 1.17187 v 0.90625 H 99.9995 v 4.04687 q 0,0.5 0.0469,0.64063 0.0625,0.14062 0.20313,0.23437 0.14062,0.0781 0.40625,0.0781 0.20312,0 0.51562,-0.0469 z m 1.15613,-7.14062 v -1.35938 h 1.17187 v 1.35938 z m 0,8.1875 v -6.90625 h 1.17187 v 6.90625 z m 4.02359,0 h -1.07813 v -9.54688 h 1.17188 v 3.40625 q 0.73437,-0.92187 1.89062,-0.92187 0.64063,0 1.20313,0.26562 0.57812,0.25 0.9375,0.71875 0.375,0.45313 0.57812,1.10938 0.20313,0.65625 0.20313,1.40625 0,1.78125 -0.875,2.75 -0.875,0.96877 -2.10938,0.96877 -1.21875,0 -1.92187,-1.01565 z m 0,-3.5 q 0,1.23437 0.32812,1.78125 0.5625,0.90625 1.5,0.90625 0.76563,0 1.32813,-0.65625 0.5625,-0.67188 0.5625,-2 0,-1.34375 -0.54688,-1.98438 -0.53125,-0.65625 -1.29687,-0.65625 -0.76563,0 -1.32813,0.67188 -0.54687,0.67187 -0.54687,1.9375 z m 6.31873,3.5 v -9.54688 h 1.17187 v 9.54688 z m 7.71109,-2.21875 1.20312,0.14062 q -0.28125,1.0625 -1.0625,1.65625 -0.76562,0.57815 -1.96875,0.57815 -1.51562,0 -2.40625,-0.93752 -0.89062,-0.9375 -0.89062,-2.60938 0,-1.75 0.89062,-2.70312 0.90625,-0.96875 2.34375,-0.96875 1.39063,0 2.26563,0.9375 0.875,0.9375 0.875,2.65625 0,0.10937 0,0.3125 h -5.15625 q 0.0625,1.14062 0.64062,1.75 0.57813,0.59375 1.4375,0.59375 0.65625,0 1.10938,-0.32813 0.45312,-0.34375 0.71875,-1.07812 z m -3.84375,-1.90625 h 3.85937 q -0.0781,-0.85938 -0.4375,-1.29688 -0.5625,-0.6875 -1.45312,-0.6875 -0.8125,0 -1.35938,0.54688 -0.54687,0.53125 -0.60937,1.4375 z" />
  <path
     style="fill:#000000;fill-rule:nonzero"
     inkscape:connector-curvature="0"
     id="path51"
     d="m 44.1647,250.81182 v -9.54688 h 1.25 v 9.54688 z m 3.328,0 v -6.90625 h 1.04688 v 0.96875 q 0.32812,-0.51563 0.85937,-0.8125 0.54688,-0.3125 1.23438,-0.3125 0.78125,0 1.26562,0.3125 0.48438,0.3125 0.6875,0.89062 0.82813,-1.20312 2.14063,-1.20312 1.03125,0 1.57812,0.57812 0.5625,0.5625 0.5625,1.73438 v 4.75 h -1.17187 v -4.35938 q 0,-0.70312 -0.125,-1 -0.10938,-0.3125 -0.40625,-0.5 -0.29688,-0.1875 -0.70313,-0.1875 -0.71875,0 -1.20312,0.48438 -0.48438,0.48437 -0.48438,1.54687 v 4.01563 h -1.17187 v -4.48438 q 0,-0.78125 -0.29688,-1.17187 -0.28125,-0.39063 -0.92187,-0.39063 -0.5,0 -0.92188,0.26563 -0.42187,0.25 -0.60937,0.75 -0.1875,0.5 -0.1875,1.45312 v 3.57813 z m 11.10242,2.65625 v -9.5625 h 1.07812 v 0.89062 q 0.375,-0.53125 0.84375,-0.78125 0.48438,-0.26562 1.15625,-0.26562 0.875,0 1.54688,0.45312 0.6875,0.45313 1.03125,1.28125 0.34375,0.82813 0.34375,1.82813 0,1.04687 -0.375,1.90625 -0.375,0.84375 -1.10938,1.29687 -0.71875,0.45313 -1.53125,0.45313 -0.57812,0 -1.04687,-0.25 -0.46875,-0.25 -0.76563,-0.625 v 3.375 z m 1.0625,-6.07813 q 0,1.34375 0.53125,1.98438 0.54687,0.625 1.3125,0.625 0.78125,0 1.34375,-0.65625 0.5625,-0.65625 0.5625,-2.04688 0,-1.3125 -0.54688,-1.96875 -0.54687,-0.67187 -1.29687,-0.67187 -0.75,0 -1.32813,0.70312 -0.57812,0.70313 -0.57812,2.03125 z m 6.33435,3.42188 v -9.54688 h 1.17188 v 9.54688 z m 7.71109,-2.21875 1.20313,0.14062 q -0.28125,1.0625 -1.0625,1.65625 -0.76563,0.57813 -1.96875,0.57813 -1.51563,0 -2.40625,-0.9375 -0.89063,-0.9375 -0.89063,-2.60938 0,-1.75 0.89063,-2.70312 0.90625,-0.96875 2.34375,-0.96875 1.39062,0 2.26562,0.9375 0.875,0.9375 0.875,2.65625 0,0.10937 0,0.3125 h -5.15625 q 0.0625,1.14062 0.64063,1.75 0.57812,0.59375 1.4375,0.59375 0.65625,0 1.10937,-0.32813 0.45313,-0.34375 0.71875,-1.07812 z m -3.84375,-1.90625 h 3.85938 q -0.0781,-0.85938 -0.4375,-1.29688 -0.5625,-0.6875 -1.45313,-0.6875 -0.8125,0 -1.35937,0.54688 -0.54688,0.53125 -0.60938,1.4375 z m 6.52185,4.125 v -6.90625 h 1.04688 v 0.96875 q 0.32812,-0.51563 0.85937,-0.8125 0.54688,-0.3125 1.23438,-0.3125 0.78125,0 1.26562,0.3125 0.48438,0.3125 0.6875,0.89062 0.82813,-1.20312 2.14063,-1.20312 1.03125,0 1.57812,0.57812 0.5625,0.5625 0.5625,1.73438 v 4.75 h -1.17187 v -4.35938 q 0,-0.70312 -0.125,-1 -0.10938,-0.3125 -0.40625,-0.5 -0.29688,-0.1875 -0.70313,-0.1875 -0.71875,0 -1.20312,0.48438 -0.48438,0.48437 -0.48438,1.54687 v 4.01563 h -1.17187 v -4.48438 q 0,-0.78125 -0.29688,-1.17187 -0.28125,-0.39063 -0.92187,-0.39063 -0.5,0 -0.92188,0.26563 -0.42187,0.25 -0.60937,0.75 -0.1875,0.5 -0.1875,1.45312 v 3.57813 z m 15.83682,-2.21875 1.20313,0.14062 q -0.28125,1.0625 -1.0625,1.65625 -0.76563,0.57813 -1.96875,0.57813 -1.51563,0 -2.40625,-0.9375 -0.89063,-0.9375 -0.89063,-2.60938 0,-1.75 0.89063,-2.70312 0.90625,-0.96875 2.34375,-0.96875 1.39062,0 2.26562,0.9375 0.875,0.9375 0.875,2.65625 0,0.10937 0,0.3125 h -5.15625 q 0.0625,1.14062 0.64063,1.75 0.57812,0.59375 1.4375,0.59375 0.65625,0 1.10937,-0.32813 0.45313,-0.34375 0.71875,-1.07812 z m -3.84375,-1.90625 h 3.85938 q -0.0781,-0.85938 -0.4375,-1.29688 -0.5625,-0.6875 -1.45313,-0.6875 -0.8125,0 -1.35937,0.54688 -0.54688,0.53125 -0.60938,1.4375 z m 6.52185,4.125 v -6.90625 h 1.0625 v 0.98437 q 0.75,-1.14062 2.1875,-1.14062 0.625,0 1.15625,0.21875 0.53125,0.21875 0.78125,0.59375 0.26563,0.35937 0.375,0.85937 0.0625,0.32813 0.0625,1.14063 v 4.25 h -1.17187 v -4.20313 q 0,-0.71875 -0.14063,-1.0625 -0.14062,-0.35937 -0.48437,-0.5625 -0.34375,-0.21875 -0.8125,-0.21875 -0.75,0 -1.29688,0.46875 -0.54687,0.46875 -0.54687,1.79688 v 3.78125 z m 9.97498,-1.04688 0.17188,1.03125 q -0.5,0.10938 -0.89063,0.10938 -0.64062,0 -1,-0.20313 -0.34375,-0.20312 -0.48437,-0.53125 -0.14063,-0.32812 -0.14063,-1.39062 v -3.96875 h -0.85937 v -0.90625 h 0.85937 v -1.71875 l 1.17188,-0.70313 v 2.42188 h 1.17187 v 0.90625 h -1.17187 v 4.04687 q 0,0.5 0.0469,0.64063 0.0625,0.14062 0.20313,0.23437 0.14062,0.0781 0.40625,0.0781 0.20312,0 0.51562,-0.0469 z m 5.6561,0.1875 q -0.65625,0.5625 -1.26563,0.79688 -0.59375,0.21875 -1.28125,0.21875 -1.14062,0 -1.75,-0.54688 -0.60937,-0.5625 -0.60937,-1.4375 0,-0.5 0.21875,-0.92187 0.23437,-0.42188 0.60937,-0.67188 0.375,-0.25 0.84375,-0.39062 0.34375,-0.0781 1.04688,-0.17188 1.42187,-0.17187 2.09375,-0.40625 0,-0.23437 0,-0.29687 0,-0.71875 -0.32813,-1.01563 -0.45312,-0.39062 -1.34375,-0.39062 -0.8125,0 -1.21875,0.29687 -0.39062,0.28125 -0.57812,1.01563 l -1.14063,-0.15625 q 0.15625,-0.73438 0.51563,-1.1875 0.35937,-0.45313 1.03125,-0.6875 0.67187,-0.25 1.5625,-0.25 0.89062,0 1.4375,0.20312 0.5625,0.20313 0.8125,0.53125 0.26562,0.3125 0.375,0.79688 0.0469,0.29687 0.0469,1.07812 v 1.5625 q 0,1.625 0.0781,2.0625 0.0781,0.4375 0.29687,0.82813 h -1.21875 q -0.1875,-0.35938 -0.23437,-0.85938 z m -0.0937,-2.60937 q -0.64063,0.26562 -1.92188,0.4375 -0.71875,0.10937 -1.01562,0.25 -0.29688,0.125 -0.46875,0.375 -0.15625,0.25 -0.15625,0.54687 0,0.46875 0.34375,0.78125 0.35937,0.3125 1.04687,0.3125 0.67188,0 1.20313,-0.29687 0.53125,-0.29688 0.78125,-0.8125 0.1875,-0.39063 0.1875,-1.17188 z m 5.5531,2.42187 0.17187,1.03125 q -0.5,0.10938 -0.89062,0.10938 -0.64063,0 -1,-0.20313 -0.34375,-0.20312 -0.48438,-0.53125 -0.14062,-0.32812 -0.14062,-1.39062 v -3.96875 h -0.85943 v -0.90625 h 0.85938 v -1.71875 l 1.17187,-0.70313 v 2.42188 h 1.17188 v 0.90625 h -1.17188 v 4.04687 q 0,0.5 0.0469,0.64063 0.0625,0.14062 0.20312,0.23437 0.14063,0.0781 0.40625,0.0781 0.20313,0 0.51563,-0.0469 z m 1.15613,-7.14062 v -1.35938 h 1.17187 v 1.35938 z m 0,8.1875 v -6.90625 h 1.17187 v 6.90625 z m 2.50796,-3.45313 q 0,-1.92187 1.07813,-2.84375 0.89062,-0.76562 2.17187,-0.76562 1.42188,0 2.32813,0.9375 0.90625,0.92187 0.90625,2.57812 0,1.32813 -0.40625,2.09375 -0.39063,0.76563 -1.15625,1.1875 -0.76563,0.42188 -1.67188,0.42188 -1.45312,0 -2.35937,-0.92188 -0.89063,-0.9375 -0.89063,-2.6875 z m 1.20313,0 q 0,1.32813 0.57812,1.98438 0.59375,0.65625 1.46875,0.65625 0.875,0 1.45313,-0.65625 0.57812,-0.67188 0.57812,-2.03125 0,-1.28125 -0.59375,-1.9375 -0.57812,-0.65625 -1.4375,-0.65625 -0.875,0 -1.46875,0.65625 -0.57812,0.65625 -0.57812,1.98437 z m 6.64685,3.45313 v -6.90625 h 1.0625 v 0.98437 q 0.75,-1.14062 2.1875,-1.14062 0.625,0 1.15625,0.21875 0.53125,0.21875 0.78125,0.59375 0.26562,0.35937 0.375,0.85937 0.0625,0.32813 0.0625,1.14063 v 4.25 h -1.17188 v -4.20313 q 0,-0.71875 -0.14062,-1.0625 -0.14063,-0.35937 -0.48438,-0.5625 -0.34375,-0.21875 -0.8125,-0.21875 -0.75,0 -1.29687,0.46875 -0.54688,0.46875 -0.54688,1.79688 v 3.78125 z" />
  <path
     style="fill:#000000;fill-opacity:0;fill-rule:evenodd"
     inkscape:connector-curvature="0"
     id="path53"
     d="m 50.97244,147.50788 c 0,6.99803 6.75592,10.49608 13.51181,13.99608 6.75592,3.5 13.51181,7.00195 13.51181,14.00392" />
  <path
     style="fill-rule:evenodd;stroke:#000000;stroke-width:1;stroke-linecap:butt;stroke-linejoin:round"
     inkscape:connector-curvature="0"
     id="path55"
     d="m 50.97244,147.50788 c 0,6.99803 6.75592,10.49608 13.51181,13.99608 3.37796,1.75 6.75592,3.50049 9.28937,5.6887 0.63336,0.54706 1.21396,1.12149 1.72854,1.73009 0.1287,0.15216 0.25321,0.30646 0.37342,0.463 0.0601,0.0783 0.11911,0.15709 0.17703,0.23648 l 0.12024,0.16936" />
  <path
     style="fill:#000000;fill-rule:evenodd;stroke:#000000;stroke-width:1;stroke-linecap:butt"
     inkscape:connector-curvature="0"
     id="path57"
     d="m 74.59921,170.29351 2.95264,3.82159 0.19464,-4.82542 z" />
  <path
     style="fill:#000000;fill-opacity:0;fill-rule:evenodd"
     inkscape:connector-curvature="0"
     id="path59"
     d="m 120.46851,136.01181 c 27.496,0 51.24399,25.50394 54.992,51.00787 3.74805,25.50394 -12.50387,51.00786 -25.00775,51.00786" />
  <path
     style="fill-rule:evenodd;stroke:#000000;stroke-width:1;stroke-linecap:butt;stroke-linejoin:round"
     inkscape:connector-curvature="0"
     id="path61"
     d="m 120.46851,136.01181 c 27.49603,0 51.24396,25.50394 54.992,51.00787 1.87403,12.75197 -1.25192,25.50394 -6.40942,35.0679 -2.57874,4.782 -5.66531,8.76699 -8.88873,11.55648 -0.80585,0.69738 -1.62024,1.32003 -2.43741,1.86172 -0.4086,0.27088 -0.81784,0.52149 -1.22708,0.7511 l -0.26886,0.1474" />
  <path
     style="fill:#000000;fill-rule:evenodd;stroke:#000000;stroke-width:1;stroke-linecap:butt"
     inkscape:connector-curvature="0"
     id="path63"
     d="m 155.78214,234.81415 -3.922,2.81789 4.81574,0.36239 z" />
  <path
     style="fill:#000000;fill-opacity:0;fill-rule:evenodd"
     inkscape:connector-curvature="0"
     id="path65"
     d="m 161.94095,220.84908 h 34.51968 v 28 h -34.51968 z" />
  <path
     style="fill:#000000;fill-rule:nonzero"
     inkscape:connector-curvature="0"
     id="path67"
     d="m 173.92532,237.52908 h -0.70313 v -4.48438 q -0.25,0.25 -0.67187,0.5 -0.40625,0.23438 -0.73438,0.34375 v -0.67187 q 0.59375,-0.28125 1.03125,-0.67188 0.4375,-0.39062 0.625,-0.76562 h 0.45313 z m 2.19922,0 v -0.79688 h 0.79687 v 0.79688 z m 2.22265,0 v -0.79688 h 0.79688 v 0.79688 z m 2.01954,0 v -4.15625 h 0.625 v 0.59375 q 0.46875,-0.6875 1.32812,-0.6875 0.375,0 0.6875,0.14062 0.3125,0.14063 0.46875,0.35938 0.15625,0.21875 0.21875,0.51562 0.0469,0.1875 0.0469,0.6875 v 2.54688 h -0.70313 v -2.53125 q 0,-0.42188 -0.0937,-0.625 -0.0781,-0.21875 -0.29687,-0.34375 -0.20313,-0.14063 -0.48438,-0.14063 -0.4375,0 -0.76562,0.29688 -0.32813,0.28125 -0.32813,1.07812 v 2.26563 z" />
</svg>
